
<svg xmlns="http://www.w3.org/2000/svg" version="1.1" xmlns:xlink="http://www.w3.org/1999/xlink" preserveAspectRatio="none" x="0px" y="0px" width="184px" height="10px" viewBox="0 0 184 10">
<defs>
<g id="Layer0_0_FILL">
<path fill="#FFFFFF" stroke="none" d="
M 3.1 0.1
Q 3 0 2.9 0
L 2.3 0
Q 2.2 0 2.15 0.05 2.1 0.1 2.1 0.15 1.9 0.6 1.4 1
L 1.4 1.05
Q 0.85 1.5 0.15 1.85 0.1 1.85 0.05 1.95 0 2 0 2.05
L 0 2.9
Q 0 3 0.05 3.05 0.1 3.1 0.2 3.15 0.25 3.15 0.35 3.15 0.75 3 1.3 2.7 1.55 2.55 1.75 2.4
L 1.75 7.45
Q 1.75 7.55 1.85 7.65 1.9 7.7 2 7.7
L 2.9 7.7
Q 3 7.7 3.1 7.65 3.15 7.55 3.15 7.45
L 3.15 0.25
Q 3.15 0.15 3.1 0.1
M 10.6 0.25
Q 10.5 0.15 10.4 0.15
L 6.85 0.15
Q 6.75 0.15 6.7 0.2 6.6 0.25 6.6 0.35
L 5.9 4
Q 5.9 4.05 5.95 4.15 5.95 4.2 6 4.25 6.05 4.3 6.15 4.3
L 7 4.4
Q 7.05 4.4 7.1 4.4 7.15 4.35 7.2 4.3 7.35 4.05 7.65 3.95
L 7.7 3.95
Q 7.95 3.75 8.3 3.75 8.9 3.75 9.25 4.1 9.6 4.45 9.6 5.1 9.6 5.8 9.25 6.2 8.85 6.6 8.3 6.6 7.9 6.6 7.6 6.3
L 7.6 6.35
Q 7.3 6 7.2 5.45 7.2 5.35 7.1 5.3 7 5.25 6.95 5.25
L 6 5.35
Q 5.85 5.35 5.8 5.45 5.75 5.55 5.75 5.65 5.85 6.6 6.55 7.25 7.25 7.8 8.3 7.8 9.6 7.8 10.4 6.85 11 6.1 11 5 11 3.9 10.3 3.2 9.55 2.45 8.55 2.45 8.05 2.45 7.55 2.7
L 7.8 1.5 10.4 1.5
Q 10.5 1.5 10.6 1.45 10.65 1.35 10.65 1.25
L 10.65 0.4
Q 10.65 0.3 10.6 0.25
M 16.75 1
Q 16.4 0.55 15.95 0.3 15.5 0 14.8 0 13.9 0 13.35 0.5
L 13.35 0.55
Q 12.8 0.95 12.5 1.85
L 12.55 1.8
Q 12.2 2.6 12.2 3.9 12.2 6.05 12.95 7
L 12.95 7.05
Q 13.6 7.8 14.8 7.8 15.7 7.8 16.25 7.35 16.8 6.9 17.1 6.05 17.4 5.25 17.4 3.9 17.4 2.8 17.2 2.2 17.05 1.5 16.8 1.05
L 16.75 1
M 16 3.9
Q 16 5.6 15.6 6.1 15.3 6.6 14.8 6.6 14.3 6.6 14 6.1 13.6 5.6 13.6 3.9 13.6 2.25 14 1.65 14.3 1.25 14.8 1.25 15.3 1.25 15.6 1.7 16 2.25 16 3.9
M 23.65 2.2
Q 23.5 1.5 23.25 1.05
L 23.2 1
Q 22.85 0.55 22.4 0.3 21.95 0 21.25 0 20.35 0 19.8 0.5
L 19.8 0.55
Q 19.25 0.95 18.95 1.85
L 19 1.8
Q 18.65 2.6 18.65 3.9 18.65 6.05 19.4 7
L 19.4 7.05
Q 20.05 7.8 21.25 7.8 22.15 7.8 22.7 7.35 23.25 6.9 23.55 6.05 23.85 5.25 23.85 3.9 23.85 2.8 23.65 2.2
M 21.25 1.25
Q 21.75 1.25 22.05 1.7 22.45 2.25 22.45 3.9 22.45 5.6 22.05 6.1 21.75 6.6 21.25 6.6 20.75 6.6 20.45 6.1 20.05 5.6 20.05 3.9 20.05 2.25 20.45 1.65 20.75 1.25 21.25 1.25
M 33.85 5.1
L 30.55 0.15 30.5 0.1
Q 30.4 0.05 30.35 0.05
L 29.35 0.05
Q 29.25 0.05 29.2 0.15 29.1 0.2 29.1 0.3
L 29.1 7.45
Q 29.1 7.55 29.2 7.65 29.25 7.7 29.35 7.7
L 30.25 7.7
Q 30.35 7.7 30.45 7.65 30.5 7.55 30.5 7.45
L 30.5 2.7 33.85 7.6
Q 33.9 7.65 33.95 7.7 34 7.7 34.05 7.7
L 35 7.7
Q 35.1 7.7 35.2 7.65 35.25 7.55 35.25 7.45
L 35.25 0.3
Q 35.25 0.2 35.2 0.15 35.1 0.05 35 0.05
L 34.1 0.05
Q 34 0.05 33.95 0.15 33.85 0.2 33.85 0.3
L 33.85 5.1
M 46.3 0.4
Q 46.3 0.3 46.3 0.25 46.25 0.15 46.2 0.1 46.15 0.05 46.05 0.05
L 45.05 0.05
Q 44.95 0.05 44.9 0.1 44.85 0.15 44.8 0.25
L 43.65 5.25
Q 43.5 4.55 43.3 3.85
L 42.25 0.25
Q 42.2 0.15 42.15 0.1 42.1 0.05 42 0.05
L 40.85 0.05
Q 40.75 0.05 40.7 0.1 40.65 0.15 40.6 0.25
L 39.25 5.4 38.05 0.25
Q 38 0.15 37.95 0.1 37.9 0.05 37.8 0.05
L 36.8 0.05
Q 36.7 0.05 36.65 0.1 36.6 0.15 36.6 0.25 36.55 0.3 36.55 0.4
L 38.45 7.55
Q 38.5 7.6 38.55 7.65 38.6 7.7 38.7 7.7
L 39.7 7.7
Q 39.8 7.7 39.85 7.65 39.9 7.6 39.95 7.55
L 41.4 2.15 42.9 7.55
Q 42.95 7.6 43 7.65 43.05 7.7 43.15 7.7
L 44.05 7.7
Q 44.15 7.7 44.2 7.65 44.25 7.6 44.3 7.55
L 46.3 0.4
M 53.65 0.05
Q 53.6 0.1 53.6 0.15 53.4 0.6 52.9 1
L 52.9 1.05
Q 52.35 1.5 51.65 1.85 51.6 1.85 51.55 1.95 51.5 2 51.5 2.05
L 51.5 2.9
Q 51.5 3 51.55 3.05 51.6 3.1 51.7 3.15 51.75 3.15 51.85 3.15 52.25 3 52.8 2.7 53.05 2.55 53.25 2.4
L 53.25 7.45
Q 53.25 7.55 53.35 7.65 53.4 7.7 53.5 7.7
L 54.4 7.7
Q 54.5 7.7 54.6 7.65 54.65 7.55 54.65 7.45
L 54.65 0.25
Q 54.65 0.15 54.6 0.1 54.5 0 54.4 0
L 53.8 0
Q 53.7 0 53.65 0.05
M 62.25 2.2
Q 62.1 1.5 61.85 1.05
L 61.8 1
Q 61.45 0.55 61 0.3 60.55 0 59.85 0 58.95 0 58.4 0.5
L 58.4 0.55
Q 57.85 0.95 57.55 1.85
L 57.6 1.8
Q 57.25 2.6 57.25 3.9 57.25 6.05 58 7
L 58 7.05
Q 58.65 7.8 59.85 7.8 60.75 7.8 61.3 7.35 61.85 6.9 62.15 6.05 62.45 5.25 62.45 3.9 62.45 2.8 62.25 2.2
M 59.05 1.65
Q 59.35 1.25 59.85 1.25 60.35 1.25 60.65 1.7 61.05 2.25 61.05 3.9 61.05 5.6 60.65 6.1 60.35 6.6 59.85 6.6 59.35 6.6 59.05 6.1 58.65 5.6 58.65 3.9 58.65 2.25 59.05 1.65
M 68.85 0.25
Q 68.75 0.15 68.65 0.15
L 64 0.15
Q 63.9 0.15 63.85 0.25 63.75 0.3 63.75 0.4
L 63.75 1.25
Q 63.75 1.35 63.85 1.45 63.9 1.5 64 1.5
L 67 1.5
Q 66.5 2.15 66.05 3 65.4 4.1 65.1 5.35 64.8 6.55 64.75 7.45 64.75 7.5 64.8 7.6 64.8 7.65 64.9 7.7 64.95 7.7 65 7.7
L 65.95 7.7
Q 66.05 7.7 66.15 7.65 66.2 7.55 66.2 7.45 66.25 6.45 66.5 5.6 66.9 4.3 67.55 3.15 68.15 1.95 68.85 1.25 68.9 1.15 68.9 1.05
L 68.9 0.4
Q 68.9 0.3 68.85 0.25
M 77 0.1
Q 76.95 0.05 76.85 0.05
L 75.85 0.05
Q 75.75 0.05 75.7 0.1 75.65 0.15 75.65 0.2
L 72.9 7.35
Q 72.85 7.45 72.85 7.55 72.9 7.6 72.95 7.65 73 7.7 73.1 7.7
L 74.1 7.7
Q 74.2 7.7 74.25 7.65 74.3 7.6 74.35 7.55
L 75.05 5.55 77.7 5.55 78.5 7.55
Q 78.5 7.6 78.55 7.65 78.6 7.7 78.7 7.7
L 79.8 7.7
Q 79.9 7.7 79.95 7.65 80 7.6 80.05 7.55 80.05 7.45 80.05 7.35
L 77.1 0.2
Q 77.05 0.15 77 0.1
M 76.4 1.95
Q 76.5 2.25 76.65 2.65
L 77.25 4.25 75.5 4.25 76.2 2.5
Q 76.3 2.2 76.4 1.95
M 85.6 2.35
Q 85.6 2.25 85.6 2.2 85.55 2.1 85.5 2.05 85.45 2 85.35 2
L 84.45 2
Q 84.35 2 84.3 2.05 84.25 2.1 84.25 2.2
L 82.95 5.7 81.75 2.2
Q 81.7 2.1 81.65 2.05 81.6 2 81.5 2
L 80.6 2
Q 80.5 2 80.45 2.05 80.4 2.1 80.35 2.2 80.35 2.25 80.4 2.35
L 82.35 7.55
Q 82.35 7.6 82.4 7.65 82.45 7.7 82.55 7.7
L 83.35 7.7
Q 83.45 7.7 83.5 7.65 83.55 7.6 83.6 7.55
L 85.6 2.35
M 94.7 6.2
L 93.7 6.2
Q 93.6 6.2 93.55 6.3 93.45 6.35 93.45 6.45
L 93.45 7.45
Q 93.45 7.55 93.55 7.65 93.6 7.7 93.7 7.7
L 94.7 7.7
Q 94.8 7.7 94.9 7.65 94.95 7.55 94.95 7.45
L 94.95 6.45
Q 94.95 6.35 94.9 6.3 94.8 6.2 94.7 6.2
M 91.7 5.3
Q 91.75 5.2 91.75 5.1
L 91.75 4.85
Q 91.75 3.45 91.05 2.7 90.3 1.9 89.15 1.9 87.95 1.9 87.25 2.7 86.45 3.5 86.45 4.9 86.45 6.25 87.25 7.05 87.95 7.8 89.2 7.8 90.2 7.8 90.8 7.35 91.45 6.85 91.7 5.95 91.7 5.9 91.7 5.85 91.65 5.75 91.6 5.7 91.55 5.65 91.5 5.65
L 90.6 5.55
Q 90.5 5.55 90.45 5.6 90.35 5.65 90.35 5.75 90.15 6.2 89.85 6.4 89.6 6.6 89.2 6.6 88.65 6.6 88.3 6.25 87.95 5.9 87.9 5.35
L 91.5 5.35
Q 91.6 5.35 91.7 5.3
M 87.95 4.1
Q 88.05 3.75 88.35 3.5 88.65 3.1 89.15 3.1 89.7 3.1 90.05 3.55 90.2 3.75 90.3 4.1
L 87.95 4.1
M 106.75 2.05
L 106.75 2.1
Q 106.45 1.25 105.8 0.7
L 105.85 0.7
Q 105.4 0.3 104.65 0.15 104.2 0.05 103.35 0.05
L 100.85 0.05
Q 100.75 0.05 100.7 0.15 100.6 0.2 100.6 0.3
L 100.6 7.45
Q 100.6 7.55 100.7 7.65 100.75 7.7 100.85 7.7
L 103.45 7.7
Q 104.15 7.7 104.65 7.6
L 104.7 7.6
Q 105.2 7.45 105.6 7.2 105.95 6.95 106.3 6.45 106.6 6 106.85 5.4 107.05 4.7 107.05 3.85 107.05 2.8 106.75 2.05
M 104.5 1.55
Q 104.95 1.7 105.25 2.25 105.55 2.8 105.55 3.8 105.55 4.6 105.4 5.15
L 105.45 5.15
Q 105.25 5.6 104.95 5.95 104.7 6.1 104.4 6.2 104.35 6.2 104.35 6.25 104 6.35 103.35 6.35
L 102.05 6.35 102.05 1.4 103.3 1.4
Q 104.1 1.4 104.45 1.55
L 104.5 1.55
M 113.65 4.8
Q 113.65 3.45 112.9 2.7 112.15 1.9 110.95 1.9 109.9 1.9 109.2 2.5 108.3 3.25 108.3 4.85 108.3 6.25 109.05 7.05 109.75 7.8 110.95 7.8 111.7 7.8 112.35 7.5
L 112.3 7.5
Q 113 7.15 113.35 6.45
L 113.35 6.5
Q 113.65 5.9 113.65 4.8
M 111.9 3.55
Q 112.25 3.95 112.25 4.85 112.25 5.75 111.9 6.2 111.5 6.6 110.95 6.6 110.4 6.6 110.05 6.2 109.7 5.7 109.7 4.85 109.7 4 110.05 3.55
L 110.05 3.5
Q 110.4 3.1 110.95 3.1 111.5 3.1 111.9 3.55
M 118.25 2.25
Q 117.75 1.9 117.2 1.9 116.85 1.9 116.55 2.1
L 116.5 2.1
Q 116.45 2.15 116.35 2.25 116.35 2.15 116.3 2.1 116.2 2 116.1 2
L 115.3 2
Q 115.2 2 115.15 2.1 115.05 2.15 115.05 2.25
L 115.05 7.45
Q 115.05 7.55 115.15 7.65 115.2 7.7 115.3 7.7
L 116.2 7.7
Q 116.3 7.7 116.4 7.65 116.45 7.55 116.45 7.45
L 116.45 4.75
Q 116.45 4.25 116.55 3.75
L 116.55 3.8
Q 116.6 3.55 116.8 3.5
L 116.8 3.45
Q 117 3.3 117.15 3.3 117.4 3.3 117.65 3.45 117.7 3.5 117.8 3.5 117.9 3.5 117.95 3.45 118 3.4 118.05 3.35
L 118.35 2.55
Q 118.35 2.45 118.35 2.4 118.3 2.3 118.25 2.25
M 130.55 7.45
L 130.55 6.45
Q 130.55 6.35 130.5 6.3 130.4 6.2 130.3 6.2
L 129.3 6.2
Q 129.2 6.2 129.15 6.3 129.05 6.35 129.05 6.45
L 129.05 7.45
Q 129.05 7.55 129.15 7.65 129.2 7.7 129.3 7.7
L 129.55 7.7
Q 129.5 7.85 129.45 8
L 129.45 8.05
Q 129.3 8.15 129.15 8.3 129.05 8.35 129 8.45 128.95 8.55 129.05 8.65
L 129.25 9
Q 129.25 9.05 129.35 9.1 129.45 9.1 129.55 9.1 130.1 8.9 130.35 8.5 130.55 8.1 130.55 7.45
M 123.6 2.55
Q 123.35 2.25 122.9 2.1 122.4 1.9 121.7 1.9 121 1.9 120.45 2.15
L 120.45 2.1
Q 119.85 2.3 119.55 2.7 119.25 3.1 119.1 3.7 119.1 3.75 119.1 3.85 119.15 3.9 119.2 3.95 119.25 4 119.35 4
L 120.2 4.1
Q 120.25 4.1 120.35 4.05 120.45 4 120.45 3.95 120.55 3.5 120.8 3.3 121.05 3.1 121.55 3.1 122.15 3.1 122.45 3.35 122.55 3.55 122.55 3.95
L 122.55 4
Q 122.1 4.1 121.25 4.2
L 121.2 4.2 120.4 4.35
Q 120 4.45 119.7 4.7 119.4 4.9 119.2 5.25 118.95 5.6 118.95 6.1 118.95 6.85 119.5 7.35 120.05 7.8 121 7.8 121.55 7.8 122.05 7.65 122.35 7.5 122.75 7.25 122.75 7.4 122.85 7.55 122.85 7.6 122.9 7.65 122.95 7.7 123.05 7.7
L 124 7.7
Q 124.1 7.7 124.2 7.65 124.25 7.6 124.25 7.5 124.25 7.4 124.2 7.3 124.05 7.05 124 6.8 123.95 6.45 123.95 5.3
L 123.95 4.1
Q 123.95 3.45 123.9 3.25 123.85 2.85 123.6 2.55
M 122.5 6
L 122.5 5.95
Q 122.3 6.25 122 6.45 121.65 6.65 121.2 6.65 120.8 6.65 120.6 6.5
L 120.55 6.45
Q 120.4 6.3 120.4 6.05 120.4 5.95 120.45 5.8 120.55 5.65 120.7 5.6 120.95 5.5 121.45 5.45 122.1 5.35 122.55 5.2 122.55 5.7 122.5 6
M 127 0.15
Q 126.9 0.05 126.8 0.05
L 125.95 0.05
Q 125.85 0.05 125.8 0.15 125.7 0.2 125.7 0.3
L 125.7 7.45
Q 125.7 7.55 125.8 7.65 125.85 7.7 125.95 7.7
L 126.8 7.7
Q 126.9 7.7 127 7.65 127.05 7.55 127.05 7.45
L 127.05 0.3
Q 127.05 0.2 127 0.15
M 141.55 0.15
Q 141.45 0.05 141.35 0.05
L 136.5 0.05
Q 136.4 0.05 136.35 0.15 136.25 0.2 136.25 0.3
L 136.25 7.45
Q 136.25 7.55 136.35 7.65 136.4 7.7 136.5 7.7
L 137.45 7.7
Q 137.55 7.7 137.65 7.65 137.7 7.55 137.7 7.45
L 137.7 4.45 140.85 4.45
Q 140.95 4.45 141.05 4.4 141.1 4.3 141.1 4.2
L 141.1 3.35
Q 141.1 3.25 141.05 3.2 140.95 3.1 140.85 3.1
L 137.7 3.1 137.7 1.4 141.35 1.4
Q 141.45 1.4 141.55 1.35 141.6 1.25 141.6 1.15
L 141.6 0.3
Q 141.6 0.2 141.55 0.15
M 144.4 0.05
L 143.45 0.05
Q 143.35 0.05 143.3 0.15 143.2 0.2 143.2 0.3
L 143.2 7.45
Q 143.2 7.55 143.3 7.65 143.35 7.7 143.45 7.7
L 147.9 7.7
Q 148 7.7 148.1 7.65 148.15 7.55 148.15 7.45
L 148.15 6.6
Q 148.15 6.5 148.1 6.45 148 6.35 147.9 6.35
L 144.65 6.35 144.65 0.3
Q 144.65 0.2 144.6 0.15 144.5 0.05 144.4 0.05
M 157.4 2.1
Q 157.4 1.6 157.15 1.1 156.85 0.55 156.25 0.3 155.7 0 155.05 0 154.1 0 153.5 0.55
L 153.5 0.6
Q 152.8 1.1 152.65 2.05 152.65 2.15 152.7 2.25 152.75 2.35 152.85 2.35
L 153.75 2.5
Q 153.85 2.5 153.95 2.45 154.05 2.4 154.05 2.3 154.15 1.8 154.45 1.5 154.65 1.25 155.1 1.25 155.5 1.25 155.8 1.5 156 1.7 156 2.1 156 2.55 155.65 2.8 155.25 3.05 154.8 3.05
L 154.65 3.05
Q 154.55 3.05 154.5 3.1 154.4 3.15 154.4 3.3
L 154.3 4.05
Q 154.3 4.1 154.35 4.2 154.35 4.25 154.45 4.3 154.55 4.3 154.65 4.3 154.95 4.2 155.15 4.2 155.7 4.2 156.05 4.55
L 156 4.55
Q 156.3 4.85 156.3 5.35 156.3 5.9 156 6.25 155.6 6.6 155.1 6.6 154.7 6.6 154.4 6.3 154.1 6.05 153.95 5.4 153.95 5.3 153.85 5.25 153.75 5.2 153.7 5.2
L 152.8 5.3
Q 152.65 5.3 152.6 5.4 152.55 5.5 152.55 5.6 152.65 6.55 153.4 7.2 154.05 7.85 155.1 7.85 156.25 7.85 157 7.15 157.75 6.35 157.75 5.35 157.75 4.55 157.35 4.05 157.1 3.7 156.75 3.5 156.95 3.3 157.1 3.1 157.4 2.7 157.4 2.1
M 163.6 1.1
Q 163.3 0.55 162.7 0.3 162.15 0 161.5 0 160.55 0 159.95 0.55
L 159.95 0.6
Q 159.25 1.1 159.1 2.05 159.1 2.15 159.15 2.25 159.2 2.35 159.3 2.35
L 160.2 2.5
Q 160.3 2.5 160.4 2.45 160.5 2.4 160.5 2.3 160.6 1.8 160.9 1.5 161.1 1.25 161.55 1.25 161.95 1.25 162.25 1.5 162.45 1.7 162.45 2.1 162.45 2.55 162.1 2.8 161.7 3.05 161.25 3.05
L 161.1 3.05
Q 161 3.05 160.95 3.1 160.85 3.15 160.85 3.3
L 160.75 4.05
Q 160.75 4.1 160.8 4.2 160.8 4.25 160.9 4.3 161 4.3 161.1 4.3 161.4 4.2 161.6 4.2 162.15 4.2 162.5 4.55
L 162.45 4.55
Q 162.75 4.85 162.75 5.35 162.75 5.9 162.45 6.25 162.05 6.6 161.55 6.6 161.15 6.6 160.85 6.3 160.55 6.05 160.4 5.4 160.4 5.3 160.3 5.25 160.2 5.2 160.15 5.2
L 159.25 5.3
Q 159.1 5.3 159.05 5.4 159 5.5 159 5.6 159.1 6.55 159.85 7.2 160.5 7.85 161.55 7.85 162.7 7.85 163.45 7.15 164.2 6.35 164.2 5.35 164.2 4.55 163.8 4.05 163.55 3.7 163.2 3.5 163.4 3.3 163.55 3.1 163.85 2.7 163.85 2.1 163.85 1.6 163.6 1.1
M 167.55 1
L 167.55 1.05
Q 167 1.5 166.3 1.85 166.25 1.85 166.2 1.95 166.15 2 166.15 2.05
L 166.15 2.9
Q 166.15 3 166.2 3.05 166.25 3.1 166.35 3.15 166.4 3.15 166.5 3.15 166.9 3 167.45 2.7 167.7 2.55 167.9 2.4
L 167.9 7.45
Q 167.9 7.55 168 7.65 168.05 7.7 168.15 7.7
L 169.05 7.7
Q 169.15 7.7 169.25 7.65 169.3 7.55 169.3 7.45
L 169.3 0.25
Q 169.3 0.15 169.25 0.1 169.15 0 169.05 0
L 168.45 0
Q 168.35 0 168.3 0.05 168.25 0.1 168.25 0.15 168.05 0.6 167.55 1
M 177.1 0.4
Q 177.1 0.3 177.05 0.25 176.95 0.15 176.85 0.15
L 172.2 0.15
Q 172.1 0.15 172.05 0.25 171.95 0.3 171.95 0.4
L 171.95 1.25
Q 171.95 1.35 172.05 1.45 172.1 1.5 172.2 1.5
L 175.2 1.5
Q 174.7 2.15 174.25 3 173.6 4.1 173.3 5.35 173 6.55 172.95 7.45 172.95 7.5 173 7.6 173 7.65 173.1 7.7 173.15 7.7 173.2 7.7
L 174.15 7.7
Q 174.25 7.7 174.35 7.65 174.4 7.55 174.4 7.45 174.45 6.45 174.7 5.6 175.1 4.3 175.75 3.15 176.35 1.95 177.05 1.25 177.1 1.15 177.1 1.05
L 177.1 0.4
M 183.45 2.25
Q 183.45 1.3 182.8 0.7 182.1 0 181 0 179.85 0 179.2 0.6
L 179.2 0.65
Q 178.5 1.2 178.4 2.35 178.4 2.4 178.45 2.5 178.5 2.6 178.65 2.6
L 179.55 2.7
Q 179.6 2.7 179.65 2.7 179.7 2.65 179.75 2.6 179.8 2.55 179.8 2.5 179.85 1.9 180.15 1.55 180.45 1.25 180.95 1.25 181.45 1.25 181.8 1.55 182.05 1.8 182.05 2.25 182.05 2.7 181.7 3.15 181.3 3.7 180.2 4.6 179.45 5.2 179.05 5.75
L 179 5.75
Q 178.6 6.2 178.4 6.75
L 178.4 6.8
Q 178.25 7.1 178.25 7.45 178.25 7.55 178.35 7.65 178.4 7.7 178.5 7.7
L 183.25 7.7
Q 183.35 7.7 183.45 7.65 183.5 7.55 183.5 7.45
L 183.5 6.6
Q 183.5 6.5 183.45 6.45 183.35 6.35 183.25 6.35
L 180.25 6.35 181.3 5.45
Q 182.2 4.65 182.65 4.15
L 182.65 4.1
Q 183.05 3.6 183.3 3.2 183.45 2.75 183.45 2.25 Z"/>
</g>
</defs>

<g transform="matrix( 1, 0, 0, 1, 0,0) ">
<use xlink:href="#Layer0_0_FILL"/>
</g>
</svg>
