
<svg xmlns="http://www.w3.org/2000/svg" version="1.1" xmlns:xlink="http://www.w3.org/1999/xlink" preserveAspectRatio="none" x="0px" y="0px" width="76px" height="34px" viewBox="0 0 76 34">
<defs>
<g id="Layer0_0_FILL">
<path fill="#FFFFFF" stroke="none" d="
M 12.3 33.9
L 17.15 33.9 17.15 29.1 12.3 29.1 12.3 33.9
M 6.05 12.75
L 0 14.55 1 18.35 4.65 17.45 4.65 33.9 9.2 33.9 9.2 12.75 6.05 12.75
M 2 5.25
L 4.55 5.25 5.25 7.3
Q 5.25 7.35 5.3 7.35
L 5.35 7.4 6.45 7.4
Q 6.5 7.35 6.55 7.35 6.55 7.3 6.6 7.3 6.6 7.25 6.6 7.2
L 4.15 0.2 4.1 0.15
Q 4.05 0.15 4 0.15
L 2.5 0.15
Q 2.45 0.15 2.45 0.2
L 0.05 7.2
Q 0 7.25 0.05 7.3
L 0.15 7.4 1.2 7.4
Q 1.25 7.35 1.3 7.35
L 1.35 7.3 2 5.25
M 4.2 4.15
L 2.4 4.15 3.3 1.6 4.2 4.15
M 11.2 0.3
Q 10.8 0.1 10.3 0.15
L 7.5 0.15
Q 7.45 0.1 7.4 0.15 7.35 0.2 7.4 0.25
L 7.4 7.25
Q 7.35 7.3 7.4 7.35 7.45 7.4 7.5 7.4
L 8.5 7.4
Q 8.55 7.4 8.6 7.35 8.65 7.3 8.65 7.25
L 8.65 4.8 10.3 4.8
Q 10.8 4.8 11.2 4.65
L 11.2 4.6
Q 11.65 4.4 11.95 4.1 12.25 3.8 12.45 3.35
L 12.5 3.35
Q 12.65 2.95 12.65 2.45 12.65 1.95 12.5 1.55
L 12.45 1.55
Q 12.25 1.1 11.95 0.8 11.65 0.5 11.2 0.3
M 10.3 1.4
Q 10.55 1.4 10.75 1.5
L 10.75 1.45
Q 10.9 1.55 11.05 1.7 11.2 1.85 11.3 2.05 11.4 2.25 11.4 2.45 11.4 2.65 11.3 2.85 11.2 3.05 11.05 3.2 10.9 3.35 10.75 3.45 10.55 3.5 10.3 3.55
L 8.65 3.55 8.65 1.4 10.3 1.4
M 18.8 1.55
L 18.75 1.55
Q 18.55 1.1 18.25 0.8 17.95 0.5 17.5 0.3 17.1 0.1 16.6 0.15
L 13.8 0.15
Q 13.75 0.1 13.7 0.15 13.65 0.2 13.7 0.25
L 13.7 7.25
Q 13.65 7.3 13.7 7.35 13.75 7.4 13.8 7.4
L 14.8 7.4
Q 14.85 7.4 14.9 7.35 14.95 7.3 14.95 7.25
L 14.95 4.8 16.7 4.8 18 7.3
Q 18 7.35 18.05 7.35
L 18.1 7.4 19.25 7.4
Q 19.3 7.4 19.35 7.35 19.35 7.3 19.4 7.3 19.4 7.25 19.35 7.2
L 17.85 4.4
Q 18.05 4.25 18.25 4.1 18.45 3.9 18.6 3.65 18.75 3.35 18.9 3.1 18.95 2.75 18.95 2.45 18.95 1.95 18.8 1.55
M 17.05 1.45
Q 17.2 1.55 17.35 1.7 17.5 1.85 17.6 2.05 17.7 2.25 17.7 2.45 17.7 2.65 17.6 2.85 17.5 3.05 17.35 3.2 17.2 3.35 17.05 3.45 16.85 3.5 16.6 3.55
L 14.95 3.55 14.95 1.4 16.6 1.4
Q 16.85 1.4 17.05 1.5
L 17.05 1.45
M 34.65 16.4
L 34.65 12.9 19.55 12.9 19.55 16.9 29.4 16.9 20 33.9 25.25 33.9 34.65 16.4
M 26.25 0.15
Q 26.2 0.15 26.15 0.15
L 24.65 0.15
Q 24.6 0.15 24.6 0.2
L 22.2 7.2
Q 22.15 7.25 22.2 7.3
L 22.3 7.4 23.35 7.4
Q 23.4 7.35 23.45 7.35
L 23.5 7.3 24.15 5.25 26.7 5.25 27.4 7.3
Q 27.4 7.35 27.45 7.35
L 27.5 7.4 28.6 7.4
Q 28.65 7.35 28.7 7.35 28.7 7.3 28.75 7.3 28.75 7.25 28.75 7.2
L 26.3 0.2 26.25 0.15
M 25.45 1.6
L 26.35 4.15 24.55 4.15 25.45 1.6
M 33.15 1.85
L 33.2 1.8 33.8 1
Q 33.85 0.95 33.85 0.9 33.8 0.85 33.8 0.8 33.35 0.45 32.8 0.2
L 32.2 0.05
Q 31.85 -0.05 31.55 0 31.05 -0.05 30.65 0.15 30.25 0.3 29.95 0.55
L 29.9 0.55
Q 29.65 0.8 29.45 1.2 29.25 1.55 29.3 2
L 29.3 2.05
Q 29.3 2.5 29.45 2.8 29.6 3.2 29.95 3.45 30.2 3.65 30.6 3.85
L 30.6 3.8
Q 31 4 31.65 4.15 32.05 4.25 32.4 4.4
L 32.4 4.35
Q 32.7 4.5 32.9 4.65 33 4.75 33.05 4.85 33.05 5 33.1 5.2
L 33.1 5.25
Q 33.1 5.45 33 5.65 32.9 5.85 32.75 6 32.55 6.15 32.3 6.25 32.05 6.25 31.75 6.3 31.3 6.25 30.8 6.1 30.4 5.9 30 5.5 30 5.45 29.95 5.45 29.9 5.4 29.9 5.45
L 29.85 5.45 29.1 6.15
Q 29.05 6.2 29.05 6.25 29 6.3 29.05 6.35 29.3 6.65 29.65 6.85 29.95 7.05 30.3 7.25
L 30.3 7.2
Q 30.6 7.35 31.05 7.5 31.4 7.55 31.75 7.55 32.35 7.55 32.8 7.4 33.25 7.2 33.65 6.9 33.95 6.6 34.15 6.15
L 34.2 6.15
Q 34.35 5.75 34.35 5.25
L 34.35 5.2
Q 34.35 4.7 34.2 4.35 34 3.95 33.7 3.7 33.45 3.45 32.95 3.25 32.55 3.05 31.9 2.95 31.35 2.75 31.05 2.7 30.8 2.55 30.7 2.45 30.55 2.3 30.55 2.05
L 30.55 2
Q 30.55 1.7 30.8 1.5 30.95 1.35 31.1 1.25
L 31.1 1.3
Q 31.3 1.25 31.55 1.25 31.9 1.25 32.3 1.4 32.7 1.5 33.05 1.8
L 33.1 1.85 33.15 1.85
M 50.9 12.75
L 47 12.75 35.45 26.1 36.25 29.35 46.5 29.35 46.5 33.9 50.9 33.9 50.9 29.35 53.7 29.35 53.7 25.6 50.9 25.6 50.9 12.75
M 46.5 25.6
L 40.9 25.6 46.5 19.1 46.5 25.6
M 60.05 14.1
Q 59.65 13.7 59.15 13.45 58.6 13.2 57.95 13.2 57.35 13.2 56.8 13.45 56.25 13.7 55.85 14.1 55.5 14.5 55.3 15.05 55.05 15.65 55.05 16.25
L 55.05 16.3
Q 55.05 16.9 55.25 17.45 55.5 18 55.85 18.4 56.25 18.85 56.75 19.05 57.3 19.3 57.95 19.3 58.55 19.3 59.1 19.05 59.65 18.85 60.05 18.4 60.45 18 60.65 17.45 60.85 16.85 60.85 16.25 60.85 15.6 60.65 15.05 60.45 14.5 60.05 14.1
M 57.1 15.2
Q 57.4 14.75 57.95 14.75 58.45 14.75 58.75 15.2 59.05 15.65 59.05 16.25
L 59.05 16.3
Q 59.05 16.9 58.8 17.3 58.5 17.75 57.95 17.75 57.5 17.75 57.15 17.3 56.85 16.85 56.85 16.25 56.85 15.6 57.1 15.2
M 42.95 6.15
Q 42.9 6.1 42.85 6.15
L 39.4 6.15 39.4 0.25
Q 39.4 0.2 39.35 0.15 39.3 0.1 39.25 0.15
L 38.25 0.15
Q 38.2 0.1 38.15 0.15 38.1 0.2 38.15 0.25
L 38.15 7.25
Q 38.1 7.3 38.15 7.35 38.2 7.4 38.25 7.4
L 42.85 7.4
Q 42.9 7.4 42.95 7.35 43 7.3 43 7.25
L 43 6.25
Q 43 6.2 42.95 6.15
M 50.7 4.55
Q 50.75 4.1 50.75 3.75 50.75 3.4 50.7 3 50.55 2.6 50.4 2.3
L 50.45 2.35
Q 50.3 1.95 50.1 1.65 49.9 1.3 49.65 1.05 49.4 0.8 49.1 0.6 48.75 0.4 48.4 0.3 48.1 0.15 47.75 0.05 47.3 -0.05 46.95 0 46.6 -0.05 46.2 0.05 45.8 0.15 45.5 0.3
L 45.55 0.3
Q 45.15 0.4 44.85 0.6 44.5 0.8 44.25 1.05 44 1.3 43.8 1.65 43.6 1.95 43.5 2.35
L 43.5 2.3
Q 43.35 2.6 43.25 3 43.15 3.4 43.2 3.75 43.15 4.1 43.25 4.55 43.35 4.9 43.5 5.2 43.6 5.55 43.8 5.9 44 6.2 44.25 6.45 44.5 6.7 44.85 6.9 45.15 7.1 45.55 7.25
L 45.5 7.2
Q 45.8 7.35 46.2 7.5 46.6 7.55 46.95 7.55 47.3 7.55 47.75 7.5 48.1 7.35 48.4 7.2
L 48.4 7.25
Q 48.75 7.1 49.1 6.9 49.4 6.7 49.65 6.45 49.9 6.2 50.1 5.9 50.3 5.55 50.45 5.2
L 50.4 5.2
Q 50.55 4.9 50.7 4.55
M 48.8 1.95
Q 49.1 2.35 49.3 2.75 49.45 3.25 49.5 3.75 49.45 4.25 49.3 4.75 49.1 5.15 48.8 5.55
L 48.75 5.6
Q 48.35 5.9 47.95 6.1 47.45 6.25 46.95 6.3 46.45 6.25 45.95 6.1 45.55 5.9 45.15 5.6
L 45.15 5.55
Q 44.8 5.15 44.65 4.75 44.45 4.25 44.45 3.75 44.45 3.25 44.65 2.75 44.8 2.35 45.15 1.95 45.55 1.6 45.95 1.45 46.45 1.25 46.95 1.25 47.45 1.25 47.95 1.45 48.35 1.6 48.75 1.95
L 48.8 1.95
M 59.25 0.15
Q 59.2 0.1 59.2 0.15 59.15 0.2 59.15 0.25
L 58.05 5.1 56.55 0.25
Q 56.5 0.2 56.5 0.15 56.45 0.15 56.4 0.15
L 55.3 0.15
Q 55.25 0.2 55.25 0.25
L 53.75 5.15 52.6 0.25
Q 52.55 0.2 52.55 0.15 52.5 0.1 52.45 0.15
L 51.4 0.15
Q 51.35 0.15 51.35 0.2 51.3 0.25 51.35 0.3
L 52.95 7.3 53 7.35
Q 53 7.4 53.05 7.4
L 54.25 7.4
Q 54.3 7.35 54.35 7.35 54.35 7.3 54.4 7.3
L 55.85 2.4 57.4 7.3 57.5 7.4 58.7 7.4
Q 58.75 7.4 58.8 7.35 58.8 7.3 58.85 7.3
L 60.45 0.3
Q 60.45 0.25 60.45 0.2
L 60.4 0.15
Q 60.35 0.15 60.3 0.15
L 59.25 0.15
M 66.95 13.35
L 64.95 13.35 56.25 25.25 58.3 25.25 66.95 13.35
M 65.3 19.3
Q 64.65 19.3 64.1 19.55 63.55 19.75 63.2 20.2 62.8 20.6 62.6 21.15 62.4 21.7 62.4 22.35
L 62.4 22.4
Q 62.4 23 62.6 23.55 62.8 24.1 63.15 24.5 63.55 24.95 64.1 25.15 64.6 25.4 65.25 25.4 65.9 25.4 66.45 25.15 66.95 24.9 67.35 24.5 67.75 24.05 67.95 23.5 68.15 22.95 68.15 22.35
L 68.15 22.3
Q 68.15 21.7 67.95 21.15 67.75 20.6 67.35 20.2 67 19.75 66.45 19.55 65.9 19.3 65.3 19.3
M 64.45 21.3
Q 64.75 20.85 65.25 20.85 65.75 20.85 66.05 21.3 66.35 21.7 66.35 22.35
L 66.35 22.4
Q 66.35 23 66.1 23.4 65.8 23.85 65.3 23.85 64.8 23.85 64.45 23.4 64.15 22.95 64.15 22.35
L 64.15 22.3
Q 64.15 21.7 64.45 21.3
M 69.8 13.8
L 69.45 14.8 70.95 15.2 69.85 16.3 70.75 17 71.55 15.65 72.35 16.95 73.25 16.4 72.2 15.2 73.7 14.9 73.4 13.85 71.95 14.5
Q 72.1 13.35 72.1 12.9
L 71.05 12.9
Q 71.05 13.5 71.2 14.45 70.6 14.1 69.8 13.8
M 67.05 0.15
Q 67 0.15 66.95 0.15
L 65.45 0.15
Q 65.4 0.15 65.4 0.2
L 63 7.2
Q 62.95 7.25 63 7.3
L 63.1 7.4 64.15 7.4
Q 64.2 7.35 64.25 7.35
L 64.3 7.3 64.95 5.25 67.5 5.25 68.2 7.3
Q 68.2 7.35 68.25 7.35
L 68.3 7.4 69.4 7.4
Q 69.45 7.35 69.5 7.35 69.5 7.3 69.55 7.3 69.55 7.25 69.55 7.2
L 67.1 0.2 67.05 0.15
M 66.25 1.6
L 67.15 4.15 65.35 4.15 66.25 1.6
M 74 1.8
L 74.6 1
Q 74.65 0.95 74.65 0.9 74.6 0.85 74.6 0.8 74.15 0.45 73.6 0.2
L 73 0.05
Q 72.65 -0.05 72.35 0 71.85 -0.05 71.45 0.15 71.05 0.3 70.75 0.55
L 70.7 0.55
Q 70.45 0.8 70.25 1.2 70.05 1.55 70.1 2
L 70.1 2.05
Q 70.1 2.5 70.25 2.8 70.4 3.2 70.75 3.45 71 3.65 71.4 3.85
L 71.4 3.8
Q 71.8 4 72.45 4.15 72.85 4.25 73.2 4.4
L 73.2 4.35
Q 73.5 4.5 73.7 4.65 73.8 4.75 73.85 4.85 73.85 5 73.9 5.2
L 73.9 5.25
Q 73.9 5.45 73.8 5.65 73.7 5.85 73.55 6 73.35 6.15 73.1 6.25 72.85 6.25 72.55 6.3 72.1 6.25 71.6 6.1 71.2 5.9 70.8 5.5 70.8 5.45 70.75 5.45 70.7 5.4 70.7 5.45
L 70.65 5.45 69.9 6.15
Q 69.85 6.2 69.85 6.25 69.8 6.3 69.85 6.35 70.1 6.65 70.45 6.85 70.75 7.05 71.1 7.25
L 71.1 7.2
Q 71.4 7.35 71.85 7.5 72.2 7.55 72.55 7.55 73.15 7.55 73.6 7.4 74.05 7.2 74.45 6.9 74.75 6.6 74.95 6.15
L 75 6.15
Q 75.15 5.75 75.15 5.25
L 75.15 5.2
Q 75.15 4.7 75 4.35 74.8 3.95 74.5 3.7 74.25 3.45 73.75 3.25 73.35 3.05 72.7 2.95 72.15 2.75 71.85 2.7 71.6 2.55 71.5 2.45 71.35 2.3 71.35 2.05
L 71.35 2
Q 71.35 1.7 71.6 1.5 71.75 1.35 71.9 1.25
L 71.9 1.3
Q 72.1 1.25 72.35 1.25 72.7 1.25 73.1 1.4 73.5 1.5 73.85 1.8
L 73.9 1.85 73.95 1.85 74 1.8 Z"/>
</g>
</defs>

<g transform="matrix( 1, 0, 0, 1, 0,0) ">
<use xlink:href="#Layer0_0_FILL"/>
</g>
</svg>
