
<svg xmlns="http://www.w3.org/2000/svg" version="1.1" xmlns:xlink="http://www.w3.org/1999/xlink" preserveAspectRatio="none" x="0px" y="0px" width="271px" height="7px" viewBox="0 0 271 7">
<defs>
<g id="Layer0_0_FILL">
<path fill="#FFFFFF" stroke="none" d="
M 5 0.2
L 3.85 0.2 3.85 4.35 1.15 0.2 0 0.2 0 6.5 1.15 6.5 1.15 2.35 3.85 6.5 5 6.5 5 0.2
M 10.85 0.3
Q 10.55 0.15 10.2 0.1 9.9 0 9.55 0 9.2 0 8.9 0.1 8.55 0.15 8.25 0.3 7.95 0.4 7.7 0.6 7.45 0.75 7.2 1 6.95 1.25 6.8 1.5 6.6 1.75 6.5 2.05 6.35 2.35 6.3 2.7 6.25 3 6.25 3.35 6.25 3.7 6.3 4 6.35 4.35 6.5 4.65 6.6 4.95 6.8 5.2 6.95 5.5 7.2 5.7 7.45 5.95 7.7 6.1 7.95 6.3 8.25 6.4 8.55 6.55 8.9 6.6 9.2 6.7 9.55 6.7 9.9 6.7 10.2 6.6 10.55 6.55 10.85 6.4 11.15 6.3 11.4 6.1 11.65 5.95 11.9 5.7 12.15 5.5 12.3 5.2 12.5 4.95 12.6 4.65 12.75 4.35 12.8 4 12.9 3.7 12.9 3.35 12.9 3 12.8 2.7 12.75 2.35 12.6 2.05 12.5 1.75 12.3 1.5 12.15 1.25 11.9 1 11.65 0.75 11.4 0.6 11.15 0.4 10.85 0.3
M 10.4 1.35
Q 10.8 1.55 11.1 1.8 11.4 2.1 11.55 2.5 11.7 2.9 11.7 3.35 11.7 3.8 11.55 4.2 11.4 4.6 11.1 4.85 10.8 5.2 10.4 5.35 10 5.5 9.55 5.5 9.1 5.5 8.7 5.35 8.35 5.15 8.05 4.85 7.75 4.6 7.55 4.2 7.4 3.8 7.4 3.35 7.4 2.9 7.55 2.5 7.75 2.1 8.05 1.8 8.35 1.55 8.7 1.35 9.1 1.2 9.55 1.2 10 1.2 10.4 1.35
M 21.8 2.15
Q 21.65 1.85 21.5 1.6 21.3 1.35 21.1 1.15 20.9 0.9 20.65 0.75 20.4 0.55 20.1 0.45 19.8 0.35 19.5 0.25 19.2 0.2 18.9 0.2
L 16.65 0.2 16.65 6.5 18.9 6.5
Q 19.2 6.5 19.5 6.45 19.8 6.35 20.1 6.25 20.4 6.15 20.65 5.95 20.9 5.8 21.1 5.6 21.3 5.35 21.5 5.1 21.65 4.85 21.8 4.6 21.9 4.3 21.95 4 22 3.65 22 3.35 22 3.05 21.95 2.7 21.9 2.4 21.8 2.15
M 20.25 1.95
Q 20.55 2.2 20.7 2.6 20.85 2.95 20.85 3.35 20.85 3.75 20.7 4.1 20.55 4.45 20.25 4.75 20 5 19.65 5.15 19.3 5.35 18.9 5.35
L 17.8 5.35 17.8 1.35 18.9 1.35
Q 19.3 1.35 19.65 1.55 20 1.7 20.25 1.95
M 26.5 3.9
L 26.5 2.8 24.45 2.8 24.45 1.35 27.4 1.35 27.4 0.2 23.3 0.2 23.3 6.5 27.4 6.5 27.4 5.35 24.45 5.35 24.45 3.9 26.5 3.9
M 32.5 6.5
L 33.75 6.5 31.7 0.2 30 0.2 27.9 6.5 29.15 6.5 29.75 4.7 31.9 4.7 32.5 6.5
M 30.85 1.35
L 31.6 3.7 30.05 3.7 30.85 1.35
M 38.75 5.35
L 35.8 5.35 35.8 0.2 34.65 0.2 34.65 6.5 38.75 6.5 38.75 5.35
M 40.95 5.35
L 40.95 3.9 43 3.9 43 2.8 40.95 2.8 40.95 1.35 43.9 1.35 43.9 0.2 39.8 0.2 39.8 6.5 43.9 6.5 43.9 5.35 40.95 5.35
M 49.65 2.2
Q 49.65 1.8 49.45 1.45 49.3 1.05 49.05 0.8 48.75 0.5 48.4 0.35 48 0.2 47.6 0.2
L 45.15 0.2 45.15 6.5 46.3 6.5 46.3 4.25 47.6 4.25 48.7 6.5 50 6.5 48.75 3.9
Q 48.95 3.75 49.1 3.6 49.25 3.4 49.4 3.2 49.5 2.95 49.55 2.75 49.65 2.5 49.65 2.2
M 48.1 1.6
Q 48.35 1.85 48.35 2.2 48.35 2.6 48.1 2.85 47.85 3.1 47.5 3.1
L 46.3 3.1 46.3 1.35 47.5 1.35
Q 47.85 1.35 48.1 1.6
M 56.7 3.9
L 56.7 2.8 54.65 2.8 54.65 1.35 57.6 1.35 57.6 0.2 53.5 0.2 53.5 6.5 54.65 6.5 54.65 3.9 56.7 3.9
M 61.95 3.9
L 61.95 2.8 59.9 2.8 59.9 1.35 62.85 1.35 62.85 0.2 58.75 0.2 58.75 6.5 62.85 6.5 62.85 5.35 59.9 5.35 59.9 3.9 61.95 3.9
M 68.2 1.35
L 68.2 0.2 64.1 0.2 64.1 6.5 68.2 6.5 68.2 5.35 65.25 5.35 65.25 3.9 67.3 3.9 67.3 2.8 65.25 2.8 65.25 1.35 68.2 1.35
M 71.7 0.1
Q 71.45 0 71.15 0 70.75 0 70.4 0.15 70 0.3 69.75 0.55 69.5 0.8 69.35 1.15 69.2 1.5 69.2 1.85 69.2 2.25 69.3 2.55 69.45 2.85 69.7 3.1 69.95 3.3 70.3 3.45 70.65 3.6 71.15 3.75 71.6 3.85 71.85 3.95 72.1 4.05 72.2 4.15 72.35 4.3 72.35 4.6
L 72.35 4.65
Q 72.35 4.85 72.3 5 72.2 5.15 72.1 5.25 71.95 5.4 71.75 5.45 71.55 5.5 71.35 5.5 70.9 5.5 70.55 5.35 70.2 5.15 69.9 4.85
L 69 5.6
Q 69.25 5.85 69.5 6.05 69.75 6.25 70.05 6.4 70.35 6.55 70.65 6.6 71 6.7 71.35 6.7 71.8 6.7 72.2 6.55 72.6 6.4 72.9 6.1 73.2 5.8 73.4 5.45 73.55 5.05 73.55 4.65
L 73.55 4.6
Q 73.55 4.2 73.4 3.85 73.25 3.55 73 3.3 72.75 3.05 72.35 2.9 72 2.7 71.45 2.6
L 70.85 2.4
Q 70.6 2.3 70.5 2.2 70.35 2.1 70.35 1.85 70.35 1.6 70.55 1.4 70.8 1.2 71.15 1.2 71.45 1.2 71.75 1.3 72.05 1.4 72.3 1.65
L 73.1 0.75
Q 72.65 0.45 72.2 0.25 71.95 0.15 71.7 0.1
M 79.6 2.35
Q 79.3 2.2 78.95 2.2 78.6 2.2 78.3 2.35 78 2.45 77.75 2.7 77.55 2.95 77.4 3.25 77.3 3.55 77.3 3.9 77.3 4.2 77.4 4.55 77.55 4.85 77.75 5.05 78 5.3 78.3 5.4 78.6 5.55 78.95 5.55 79.3 5.55 79.6 5.4 79.9 5.3 80.15 5.05 80.35 4.85 80.5 4.55 80.6 4.2 80.6 3.9 80.6 3.55 80.5 3.25 80.35 2.95 80.15 2.7 79.9 2.45 79.6 2.35
M 88.55 0.2
L 88.55 4.35 85.85 0.2 84.7 0.2 84.7 6.5 85.85 6.5 85.85 2.35 88.55 6.5 89.7 6.5 89.7 0.2 88.55 0.2
M 97 1.5
Q 96.85 1.25 96.6 1 96.35 0.75 96.1 0.6 95.85 0.4 95.55 0.3 95.25 0.15 94.9 0.1 94.6 0 94.25 0 93.9 0 93.6 0.1 93.25 0.15 92.95 0.3 92.65 0.4 92.4 0.6 92.15 0.75 91.9 1 91.65 1.25 91.5 1.5 91.3 1.75 91.2 2.05 91.05 2.35 91 2.7 90.95 3 90.95 3.35 90.95 3.7 91 4 91.05 4.35 91.2 4.65 91.3 4.95 91.5 5.2 91.65 5.5 91.9 5.7 92.15 5.95 92.4 6.1 92.65 6.3 92.95 6.4 93.25 6.55 93.6 6.6 93.9 6.7 94.25 6.7 94.6 6.7 94.9 6.6 95.25 6.55 95.55 6.4 95.85 6.3 96.1 6.1 96.35 5.95 96.6 5.7 96.85 5.5 97 5.2 97.2 4.95 97.3 4.65 97.45 4.35 97.5 4 97.6 3.7 97.6 3.35 97.6 3 97.5 2.7 97.45 2.35 97.3 2.05 97.2 1.75 97 1.5
M 96.4 3.35
Q 96.4 3.8 96.25 4.2 96.1 4.6 95.8 4.85 95.5 5.2 95.1 5.35 94.7 5.5 94.25 5.5 93.8 5.5 93.4 5.35 93.05 5.15 92.75 4.85 92.45 4.6 92.25 4.2 92.1 3.8 92.1 3.35 92.1 2.9 92.25 2.5 92.45 2.1 92.75 1.8 93.05 1.55 93.4 1.35 93.8 1.2 94.25 1.2 94.7 1.2 95.1 1.35 95.5 1.55 95.8 1.8 96.1 2.1 96.25 2.5 96.4 2.9 96.4 3.35
M 105.2 0.2
L 105.2 2.8 102.5 2.8 102.5 0.2 101.35 0.2 101.35 6.5 102.5 6.5 102.5 3.9 105.2 3.9 105.2 6.5 106.35 6.5 106.35 0.2 105.2 0.2
M 111.8 6.5
L 113.05 6.5 111 0.2 109.3 0.2 107.2 6.5 108.45 6.5 109.05 4.7 111.2 4.7 111.8 6.5
M 109.35 3.7
L 110.15 1.35 110.9 3.7 109.35 3.7
M 118.6 0.6
Q 118.35 0.4 118.05 0.3 117.75 0.15 117.45 0.1 117.1 0 116.75 0 116.4 0 116.1 0.1 115.75 0.15 115.45 0.3 115.15 0.4 114.9 0.6 114.65 0.75 114.4 1 114.2 1.25 114 1.5 113.8 1.75 113.7 2.05 113.55 2.35 113.5 2.7 113.45 3 113.45 3.35 113.45 3.7 113.5 4 113.55 4.35 113.7 4.65 113.8 4.95 114 5.2 114.2 5.5 114.4 5.7 114.65 5.95 114.9 6.1 115.15 6.3 115.45 6.4 115.75 6.55 116.1 6.6 116.4 6.7 116.75 6.7 117.2 6.7 117.6 6.55 117.95 6.5 118.35 6.3
L 118.4 6.5 119.35 6.5 119.35 3.35 117 3.35 117 4.2 118.15 4.3 118.15 5
Q 117.9 5.25 117.55 5.35 117.15 5.5 116.75 5.5 116.35 5.5 115.95 5.35 115.55 5.15 115.25 4.85 114.95 4.6 114.75 4.2 114.6 3.8 114.6 3.35 114.6 2.9 114.75 2.5 114.95 2.1 115.25 1.8 115.55 1.55 115.95 1.35 116.35 1.2 116.75 1.2 117.2 1.2 117.6 1.35 118 1.55 118.3 1.85
L 119.1 1
Q 118.9 0.75 118.6 0.6
M 126 1
Q 125.8 0.75 125.5 0.6 125.25 0.4 124.95 0.3 124.65 0.15 124.35 0.1 124 0 123.65 0 123.3 0 123 0.1 122.65 0.15 122.35 0.3 122.05 0.4 121.8 0.6 121.55 0.75 121.3 1 121.1 1.25 120.9 1.5 120.7 1.75 120.6 2.05 120.45 2.35 120.4 2.7 120.35 3 120.35 3.35 120.35 3.7 120.4 4 120.45 4.35 120.6 4.65 120.7 4.95 120.9 5.2 121.1 5.5 121.3 5.7 121.55 5.95 121.8 6.1 122.05 6.3 122.35 6.4 122.65 6.55 123 6.6 123.3 6.7 123.65 6.7 124.1 6.7 124.5 6.55 124.85 6.5 125.25 6.3
L 125.3 6.5 126.25 6.5 126.25 3.35 123.9 3.35 123.9 4.2 125.05 4.3 125.05 5
Q 124.8 5.25 124.45 5.35 124.05 5.5 123.65 5.5 123.25 5.5 122.85 5.35 122.45 5.15 122.15 4.85 121.85 4.6 121.65 4.2 121.5 3.8 121.5 3.35 121.5 2.9 121.65 2.5 121.85 2.1 122.15 1.8 122.45 1.55 122.85 1.35 123.25 1.2 123.65 1.2 124.1 1.2 124.5 1.35 124.9 1.55 125.2 1.85
L 126 1
M 131.7 6.5
L 131.7 5.35 128.75 5.35 128.75 0.2 127.6 0.2 127.6 6.5 131.7 6.5
M 136.85 1.35
L 136.85 0.2 132.75 0.2 132.75 6.5 136.85 6.5 136.85 5.35 133.9 5.35 133.9 3.9 135.95 3.9 135.95 2.8 133.9 2.8 133.9 1.35 136.85 1.35
M 144.9 1.45
Q 144.75 1.1 144.5 0.8 144.2 0.5 143.85 0.35 143.45 0.2 143.05 0.2
L 140.6 0.2 140.6 6.5 141.75 6.5 141.75 4.25 143.05 4.25
Q 143.45 4.25 143.85 4.1 144.2 3.95 144.5 3.65 144.75 3.4 144.9 3 145.1 2.65 145.1 2.2 145.1 1.8 144.9 1.45
M 141.75 1.35
L 142.95 1.35
Q 143.3 1.35 143.55 1.6 143.8 1.85 143.8 2.2 143.8 2.6 143.55 2.85 143.3 3.1 142.95 3.1
L 141.75 3.1 141.75 1.35
M 150.7 2.2
Q 150.7 1.8 150.5 1.45 150.35 1.05 150.1 0.8 149.8 0.5 149.45 0.35 149.05 0.2 148.65 0.2
L 146.2 0.2 146.2 6.5 147.35 6.5 147.35 4.25 148.65 4.25 149.75 6.5 151.05 6.5 149.8 3.9
Q 150 3.75 150.15 3.6 150.3 3.4 150.45 3.2 150.55 2.95 150.6 2.75 150.7 2.5 150.7 2.2
M 148.55 1.35
Q 148.9 1.35 149.15 1.6 149.4 1.85 149.4 2.2 149.4 2.6 149.15 2.85 148.9 3.1 148.55 3.1
L 147.35 3.1 147.35 1.35 148.55 1.35
M 153.2 0.2
L 152.05 0.2 152.05 6.5 153.2 6.5 153.2 0.2
M 160.1 1
Q 159.9 0.75 159.6 0.6 159.35 0.4 159.05 0.3 158.75 0.15 158.45 0.1 158.1 0 157.75 0 157.4 0 157.1 0.1 156.75 0.15 156.45 0.3 156.15 0.4 155.9 0.6 155.65 0.75 155.4 1 155.2 1.25 155 1.5 154.8 1.75 154.7 2.05 154.55 2.35 154.5 2.7 154.45 3 154.45 3.35 154.45 3.7 154.5 4 154.55 4.35 154.7 4.65 154.8 4.95 155 5.2 155.2 5.5 155.4 5.7 155.65 5.95 155.9 6.1 156.15 6.3 156.45 6.4 156.75 6.55 157.1 6.6 157.4 6.7 157.75 6.7 158.15 6.7 158.5 6.6 158.85 6.55 159.2 6.4 159.5 6.3 159.8 6.1 160.1 5.9 160.35 5.7
L 159.5 4.95
Q 159.15 5.2 158.7 5.35 158.25 5.5 157.75 5.5 157.35 5.5 156.95 5.35 156.55 5.15 156.25 4.85 155.95 4.6 155.75 4.2 155.6 3.8 155.6 3.35 155.6 2.9 155.75 2.5 155.95 2.1 156.25 1.8 156.55 1.55 156.95 1.35 157.35 1.2 157.75 1.2 158.2 1.2 158.6 1.35 159 1.55 159.3 1.85
L 160.1 1
M 162.55 6.5
L 162.55 0.2 161.4 0.2 161.4 6.5 162.55 6.5
M 169.15 0.2
L 168 0.2 168 4.35 165.3 0.2 164.15 0.2 164.15 6.5 165.3 6.5 165.3 2.35 168 6.5 169.15 6.5 169.15 0.2
M 176.05 1
Q 175.85 0.75 175.55 0.6 175.3 0.4 175 0.3 174.7 0.15 174.4 0.1 174.05 0 173.7 0 173.35 0 173.05 0.1 172.7 0.15 172.4 0.3 172.1 0.4 171.85 0.6 171.6 0.75 171.35 1 171.15 1.25 170.95 1.5 170.75 1.75 170.65 2.05 170.5 2.35 170.45 2.7 170.4 3 170.4 3.35 170.4 3.7 170.45 4 170.5 4.35 170.65 4.65 170.75 4.95 170.95 5.2 171.15 5.5 171.35 5.7 171.6 5.95 171.85 6.1 172.1 6.3 172.4 6.4 172.7 6.55 173.05 6.6 173.35 6.7 173.7 6.7 174.15 6.7 174.55 6.55 174.9 6.5 175.3 6.3
L 175.35 6.5 176.3 6.5 176.3 3.35 173.95 3.35 173.95 4.2 175.1 4.3 175.1 5
Q 174.85 5.25 174.5 5.35 174.1 5.5 173.7 5.5 173.3 5.5 172.9 5.35 172.5 5.15 172.2 4.85 171.9 4.6 171.7 4.2 171.55 3.8 171.55 3.35 171.55 2.9 171.7 2.5 171.9 2.1 172.2 1.8 172.5 1.55 172.9 1.35 173.3 1.2 173.7 1.2 174.15 1.2 174.55 1.35 174.95 1.55 175.25 1.85
L 176.05 1
M 183.45 3.9
Q 183.45 3.55 183.35 3.25 183.2 2.95 183 2.7 182.75 2.45 182.45 2.35 182.15 2.2 181.8 2.2 181.45 2.2 181.15 2.35 180.85 2.45 180.6 2.7 180.4 2.95 180.25 3.25 180.15 3.55 180.15 3.9 180.15 4.2 180.25 4.55 180.4 4.85 180.6 5.05 180.85 5.3 181.15 5.4 181.45 5.55 181.8 5.55 182.15 5.55 182.45 5.4 182.75 5.3 183 5.05 183.2 4.85 183.35 4.55 183.45 4.2 183.45 3.9
M 191.9 1.35
L 191.9 0.2 186.65 0.2 186.65 1.35 188.7 1.35 188.7 6.5 189.85 6.5 189.85 1.35 191.9 1.35
M 196.15 0.35
Q 195.75 0.2 195.35 0.2
L 192.9 0.2 192.9 6.5 194.05 6.5 194.05 4.25 195.35 4.25 196.45 6.5 197.75 6.5 196.5 3.9
Q 196.7 3.75 196.85 3.6 197 3.4 197.15 3.2 197.25 2.95 197.3 2.75 197.4 2.5 197.4 2.2 197.4 1.8 197.2 1.45 197.05 1.05 196.8 0.8 196.5 0.5 196.15 0.35
M 195.25 1.35
Q 195.6 1.35 195.85 1.6 196.1 1.85 196.1 2.2 196.1 2.6 195.85 2.85 195.6 3.1 195.25 3.1
L 194.05 3.1 194.05 1.35 195.25 1.35
M 202.6 6.5
L 203.85 6.5 201.8 0.2 200.1 0.2 198 6.5 199.25 6.5 199.85 4.7 202 4.7 202.6 6.5
M 201.7 3.7
L 200.15 3.7 200.95 1.35 201.7 3.7
M 209.6 1.6
Q 209.4 1.35 209.2 1.15 209 0.9 208.75 0.75 208.5 0.55 208.2 0.45 207.9 0.35 207.6 0.25 207.3 0.2 207 0.2
L 204.75 0.2 204.75 6.5 207 6.5
Q 207.3 6.5 207.6 6.45 207.9 6.35 208.2 6.25 208.5 6.15 208.75 5.95 209 5.8 209.2 5.6 209.4 5.35 209.6 5.1 209.75 4.85 209.9 4.6 210 4.3 210.05 4 210.1 3.65 210.1 3.35 210.1 3.05 210.05 2.7 210 2.4 209.9 2.15 209.75 1.85 209.6 1.6
M 207.75 1.55
Q 208.1 1.7 208.35 1.95 208.65 2.2 208.8 2.6 208.95 2.95 208.95 3.35 208.95 3.75 208.8 4.1 208.65 4.45 208.35 4.75 208.1 5 207.75 5.15 207.4 5.35 207 5.35
L 205.9 5.35 205.9 1.35 207 1.35
Q 207.4 1.35 207.75 1.55
M 215.5 1.35
L 215.5 0.2 211.4 0.2 211.4 6.5 215.5 6.5 215.5 5.35 212.55 5.35 212.55 3.9 214.6 3.9 214.6 2.8 212.55 2.8 212.55 1.35 215.5 1.35
M 219.5 0.25
Q 219.25 0.15 219 0.1 218.75 0 218.45 0 218.05 0 217.7 0.15 217.3 0.3 217.05 0.55 216.8 0.8 216.65 1.15 216.5 1.5 216.5 1.85 216.5 2.25 216.6 2.55 216.75 2.85 217 3.1 217.25 3.3 217.6 3.45 217.95 3.6 218.45 3.75 218.9 3.85 219.15 3.95 219.4 4.05 219.5 4.15 219.65 4.3 219.65 4.6
L 219.65 4.65
Q 219.65 4.85 219.6 5 219.5 5.15 219.4 5.25 219.25 5.4 219.05 5.45 218.85 5.5 218.65 5.5 218.2 5.5 217.85 5.35 217.5 5.15 217.2 4.85
L 216.3 5.6
Q 216.55 5.85 216.8 6.05 217.05 6.25 217.35 6.4 217.65 6.55 217.95 6.6 218.3 6.7 218.65 6.7 219.1 6.7 219.5 6.55 219.9 6.4 220.2 6.1 220.5 5.8 220.7 5.45 220.85 5.05 220.85 4.65
L 220.85 4.6
Q 220.85 4.2 220.7 3.85 220.55 3.55 220.3 3.3 220.05 3.05 219.65 2.9 219.3 2.7 218.75 2.6
L 218.15 2.4
Q 217.9 2.3 217.8 2.2 217.65 2.1 217.65 1.85 217.65 1.6 217.85 1.4 218.1 1.2 218.45 1.2 218.75 1.2 219.05 1.3 219.35 1.4 219.6 1.65
L 220.4 0.75
Q 219.95 0.45 219.5 0.25
M 227.35 0.2
L 225.65 0.2 223.55 6.5 224.8 6.5 225.4 4.7 227.55 4.7 228.15 6.5 229.4 6.5 227.35 0.2
M 227.25 3.7
L 225.7 3.7 226.5 1.35 227.25 3.7
M 234.4 0.3
Q 234.1 0.15 233.8 0.1 233.45 0 233.1 0 232.75 0 232.45 0.1 232.1 0.15 231.8 0.3 231.5 0.4 231.25 0.6 231 0.75 230.75 1 230.55 1.25 230.35 1.5 230.15 1.75 230.05 2.05 229.9 2.35 229.85 2.7 229.8 3 229.8 3.35 229.8 3.7 229.85 4 229.9 4.35 230.05 4.65 230.15 4.95 230.35 5.2 230.55 5.5 230.75 5.7 231 5.95 231.25 6.1 231.5 6.3 231.8 6.4 232.1 6.55 232.45 6.6 232.75 6.7 233.1 6.7 233.5 6.7 233.85 6.6 234.2 6.55 234.55 6.4 234.85 6.3 235.15 6.1 235.45 5.9 235.7 5.7
L 234.85 4.95
Q 234.5 5.2 234.05 5.35 233.6 5.5 233.1 5.5 232.7 5.5 232.3 5.35 231.9 5.15 231.6 4.85 231.3 4.6 231.1 4.2 230.95 3.8 230.95 3.35 230.95 2.9 231.1 2.5 231.3 2.1 231.6 1.8 231.9 1.55 232.3 1.35 232.7 1.2 233.1 1.2 233.55 1.2 233.95 1.35 234.35 1.55 234.65 1.85
L 235.45 1
Q 235.25 0.75 234.95 0.6 234.7 0.4 234.4 0.3
M 241.4 0.6
Q 241.15 0.4 240.85 0.3 240.55 0.15 240.25 0.1 239.9 0 239.55 0 239.2 0 238.9 0.1 238.55 0.15 238.25 0.3 237.95 0.4 237.7 0.6 237.45 0.75 237.2 1 237 1.25 236.8 1.5 236.6 1.75 236.5 2.05 236.35 2.35 236.3 2.7 236.25 3 236.25 3.35 236.25 3.7 236.3 4 236.35 4.35 236.5 4.65 236.6 4.95 236.8 5.2 237 5.5 237.2 5.7 237.45 5.95 237.7 6.1 237.95 6.3 238.25 6.4 238.55 6.55 238.9 6.6 239.2 6.7 239.55 6.7 239.95 6.7 240.3 6.6 240.65 6.55 241 6.4 241.3 6.3 241.6 6.1 241.9 5.9 242.15 5.7
L 241.3 4.95
Q 240.95 5.2 240.5 5.35 240.05 5.5 239.55 5.5 239.15 5.5 238.75 5.35 238.35 5.15 238.05 4.85 237.75 4.6 237.55 4.2 237.4 3.8 237.4 3.35 237.4 2.9 237.55 2.5 237.75 2.1 238.05 1.8 238.35 1.55 238.75 1.35 239.15 1.2 239.55 1.2 240 1.2 240.4 1.35 240.8 1.55 241.1 1.85
L 241.9 1
Q 241.7 0.75 241.4 0.6
M 247.3 1.35
L 247.3 0.2 243.2 0.2 243.2 6.5 247.3 6.5 247.3 5.35 244.35 5.35 244.35 3.9 246.4 3.9 246.4 2.8 244.35 2.8 244.35 1.35 247.3 1.35
M 252.45 0.8
Q 252.15 0.5 251.8 0.35 251.4 0.2 251 0.2
L 248.55 0.2 248.55 6.5 249.7 6.5 249.7 4.25 251 4.25
Q 251.4 4.25 251.8 4.1 252.15 3.95 252.45 3.65 252.7 3.4 252.85 3 253.05 2.65 253.05 2.2 253.05 1.8 252.85 1.45 252.7 1.1 252.45 0.8
M 251.5 1.6
Q 251.75 1.85 251.75 2.2 251.75 2.6 251.5 2.85 251.25 3.1 250.9 3.1
L 249.7 3.1 249.7 1.35 250.9 1.35
Q 251.25 1.35 251.5 1.6
M 258.8 1.35
L 258.8 0.2 253.55 0.2 253.55 1.35 255.6 1.35 255.6 6.5 256.75 6.5 256.75 1.35 258.8 1.35
M 263.9 1.35
L 263.9 0.2 259.8 0.2 259.8 6.5 263.9 6.5 263.9 5.35 260.95 5.35 260.95 3.9 263 3.9 263 2.8 260.95 2.8 260.95 1.35 263.9 1.35
M 270.3 2.15
Q 270.15 1.85 270 1.6 269.8 1.35 269.6 1.15 269.4 0.9 269.15 0.75 268.9 0.55 268.6 0.45 268.3 0.35 268 0.25 267.7 0.2 267.4 0.2
L 265.15 0.2 265.15 6.5 267.4 6.5
Q 267.7 6.5 268 6.45 268.3 6.35 268.6 6.25 268.9 6.15 269.15 5.95 269.4 5.8 269.6 5.6 269.8 5.35 270 5.1 270.15 4.85 270.3 4.6 270.4 4.3 270.45 4 270.5 3.65 270.5 3.35 270.5 3.05 270.45 2.7 270.4 2.4 270.3 2.15
M 268.75 1.95
Q 269.05 2.2 269.2 2.6 269.35 2.95 269.35 3.35 269.35 3.75 269.2 4.1 269.05 4.45 268.75 4.75 268.5 5 268.15 5.15 267.8 5.35 267.4 5.35
L 266.3 5.35 266.3 1.35 267.4 1.35
Q 267.8 1.35 268.15 1.55 268.5 1.7 268.75 1.95 Z"/>
</g>
</defs>

<g transform="matrix( 1, 0, 0, 1, 0,0) ">
<use xlink:href="#Layer0_0_FILL"/>
</g>
</svg>
