
<svg xmlns="http://www.w3.org/2000/svg" version="1.1" xmlns:xlink="http://www.w3.org/1999/xlink" preserveAspectRatio="none" x="0px" y="0px" width="163px" height="29px" viewBox="0 0 163 29">
<defs>
<g id="Layer0_0_FILL">
<path fill="#CCCCCC" stroke="none" d="
M 13.75 24.25
Q 13.75 23.6 13.85 23.25 14 22.9 14.25 22.75 14.55 22.55 14.9 22.55 15.35 22.55 15.5 22.85 15.7 23.1 15.7 23.6
L 15.7 26.65 16.5 26.65 16.5 23.95
Q 16.5 23.2 16.85 22.9 17.15 22.55 17.65 22.55 17.9 22.55 18.1 22.7 18.35 22.8 18.4 23.05 18.5 23.25 18.5 23.7
L 18.5 26.65 19.25 26.65 19.25 23.45
Q 19.25 22.65 18.9 22.25 18.5 21.9 17.85 21.9 16.95 21.9 16.4 22.7 16.25 22.3 15.9 22.1 15.6 21.9 15.05 21.9 14.6 21.9 14.25 22.1 13.85 22.3 13.65 22.65
L 13.65 22 12.95 22 12.95 26.65 13.75 26.65 13.75 24.25
M 12.25 22.85
L 12.5 22.15
Q 12.1 21.9 11.7 21.9 11.45 21.9 11.2 22.05 10.95 22.2 10.7 22.7
L 10.7 22 10 22 10 26.65 10.8 26.65 10.8 24.2
Q 10.8 23.7 10.9 23.3 11 23 11.2 22.85 11.4 22.7 11.65 22.7 11.95 22.7 12.25 22.85
M 6.9 21.9
Q 5.95 21.9 5.35 22.55 4.75 23.2 4.75 24.35 4.75 25.5 5.35 26.15 5.95 26.75 6.95 26.75 7.75 26.75 8.3 26.35 8.8 25.95 9 25.25
L 8.2 25.15
Q 8 25.65 7.7 25.9 7.4 26.1 6.95 26.1 6.35 26.1 6 25.7 5.6 25.3 5.55 24.5
L 9.05 24.5 9.05 24.3
Q 9.05 23.15 8.45 22.5 7.85 21.9 6.9 21.9
M 5.6 23.85
Q 5.65 23.25 6 22.9 6.35 22.55 6.9 22.55 7.5 22.55 7.9 23 8.15 23.3 8.2 23.85
L 5.6 23.85
M 0.1 20.95
L 2.25 20.95 2.25 26.65 3.1 26.65 3.1 20.95 5.2 20.95 5.2 20.2 0.1 20.2 0.1 20.95
M 7.9 12
Q 7.55 11.85 7.15 11.85 6.15 11.85 5.65 12.6
L 5.65 11.95 4.95 11.95 4.95 16.6 5.75 16.6 5.75 14.05
Q 5.75 13.15 6.1 12.85 6.45 12.5 6.95 12.5 7.3 12.5 7.55 12.65 7.75 12.8 7.85 13.05 7.95 13.3 7.95 13.75
L 7.95 16.6 8.75 16.6 8.75 13.75
Q 8.75 13.2 8.7 12.95 8.6 12.6 8.45 12.4 8.25 12.15 7.9 12
M 3.8 10.15
L 3 10.15 3 11.05 3.8 11.05 3.8 10.15
M 3.8 11.95
L 3 11.95 3 16.6 3.8 16.6 3.8 11.95
M 1.15 10.25
Q 0.9 10.45 0.75 10.75 0.7 10.95 0.7 11.45
L 0.7 11.95 0 11.95 0 12.55 0.7 12.55 0.7 16.6 1.45 16.6 1.45 12.55 2.4 12.55 2.4 11.95 1.45 11.95 1.45 11.5
Q 1.45 11.1 1.6 10.95 1.75 10.75 2.15 10.75
L 2.6 10.8 2.7 10.15
Q 2.3 10.05 1.95 10.05 1.45 10.05 1.15 10.25
M 3.1 1.3
L 2.9 0.65
Q 2.3 0.85 1.85 1.1 1.95 0.45 1.95 0
L 1.3 0 1.4 1.1
Q 1.1 0.9 0.4 0.65
L 0.2 1.3 1.25 1.55
Q 1.05 1.75 0.55 2.35
L 1.05 2.75
Q 1.3 2.4 1.6 1.8 1.95 2.4 2.2 2.75
L 2.75 2.35
Q 2.25 1.75 2 1.55 2.55 1.45 3.1 1.3
M 10.1 5.65
L 9.2 5.65 9.2 6.55 10.1 6.55 10.1 5.65
M 6.75 0.1
L 6.25 0.1
Q 6.05 0.5 5.55 0.95 5.05 1.4 4.4 1.7
L 4.4 2.45
Q 4.75 2.35 5.2 2.05 5.7 1.8 5.95 1.5
L 5.95 6.55 6.75 6.55 6.75 0.1
M 17.9 12
Q 17.55 11.85 17.15 11.85 16.15 11.85 15.65 12.6
L 15.65 11.95 14.95 11.95 14.95 16.6 15.75 16.6 15.75 14.05
Q 15.75 13.15 16.1 12.85 16.45 12.5 16.95 12.5 17.3 12.5 17.55 12.65 17.75 12.8 17.85 13.05 17.95 13.3 17.95 13.75
L 17.95 16.6 18.75 16.6 18.75 13.75
Q 18.75 13.2 18.7 12.95 18.6 12.6 18.45 12.4 18.25 12.15 17.9 12
M 11.9 11.85
Q 11.3 11.85 10.85 12 10.4 12.15 10.15 12.45 9.9 12.75 9.8 13.25
L 10.6 13.35
Q 10.7 12.85 11 12.7 11.25 12.5 11.8 12.5 12.4 12.5 12.7 12.75 12.95 12.95 12.95 13.45
L 12.9 13.65
Q 12.45 13.8 11.5 13.9
L 10.8 14.05
Q 10.5 14.1 10.25 14.3 10 14.45 9.85 14.75 9.7 15.05 9.7 15.35 9.7 15.95 10.1 16.35 10.5 16.7 11.25 16.7 11.75 16.7 12.15 16.55 12.55 16.4 13 16 13 16.35 13.15 16.6
L 13.95 16.6
Q 13.8 16.35 13.8 16.05 13.7 15.75 13.7 14.65
L 13.7 13.6
Q 13.7 13.05 13.7 12.85 13.6 12.55 13.45 12.3 13.25 12.1 12.9 11.95 12.5 11.85 11.9 11.85
M 12.9 14.55
Q 12.9 15.05 12.8 15.35 12.65 15.7 12.25 15.9 11.9 16.1 11.45 16.1 11 16.1 10.75 15.85 10.5 15.65 10.5 15.35 10.5 15.15 10.65 14.95 10.75 14.8 10.95 14.7 11.15 14.65 11.65 14.55 12.5 14.45 12.9 14.25
L 12.9 14.55
M 15.5 0.8
L 15.5 0.2 11.35 0.2 11.35 0.95 14.5 0.95
Q 13.9 1.65 13.35 2.65 12.8 3.65 12.55 4.7 12.25 5.8 12.25 6.55
L 13.05 6.55
Q 13.1 5.6 13.35 4.8 13.65 3.65 14.3 2.55 14.9 1.45 15.5 0.8
M 33.2 24.1
Q 33.2 23.2 33.55 22.9 33.9 22.55 34.4 22.55 34.75 22.55 35 22.7 35.2 22.85 35.3 23.1 35.4 23.35 35.4 23.8
L 35.4 26.65 36.2 26.65 36.2 23.8
Q 36.2 23.25 36.15 23 36.05 22.65 35.9 22.45 35.7 22.2 35.35 22.05 35 21.9 34.6 21.9 33.6 21.9 33.1 22.65
L 33.1 22 32.4 22 32.4 26.65 33.2 26.65 33.2 24.1
M 27.6 22.5
Q 27.35 22.8 27.25 23.3
L 28.05 23.4
Q 28.15 22.9 28.45 22.75 28.7 22.55 29.25 22.55 29.85 22.55 30.15 22.8 30.4 23 30.4 23.5
L 30.35 23.7
Q 29.9 23.85 28.95 23.95
L 28.25 24.1
Q 27.95 24.15 27.7 24.35 27.45 24.5 27.3 24.8 27.15 25.1 27.15 25.4 27.15 26 27.55 26.4 27.95 26.75 28.7 26.75 29.2 26.75 29.6 26.6 30 26.45 30.45 26.05 30.45 26.4 30.6 26.65
L 31.4 26.65
Q 31.25 26.4 31.25 26.1 31.15 25.8 31.15 24.7
L 31.15 23.65
Q 31.15 23.1 31.15 22.9 31.05 22.6 30.9 22.35 30.7 22.15 30.35 22 29.95 21.9 29.35 21.9 28.75 21.9 28.3 22.05 27.85 22.2 27.6 22.5
M 30.35 24.3
L 30.35 24.6
Q 30.35 25.1 30.25 25.4 30.1 25.75 29.7 25.95 29.35 26.15 28.9 26.15 28.45 26.15 28.2 25.9 27.95 25.7 27.95 25.4 27.95 25.2 28.1 25 28.2 24.85 28.4 24.75 28.6 24.7 29.1 24.6 29.95 24.5 30.35 24.3
M 22 22.55
Q 22.45 22.55 22.7 22.75 22.95 22.95 23 23.3
L 23.8 23.2
Q 23.7 22.75 23.5 22.45 23.3 22.2 22.9 22.05 22.5 21.9 21.95 21.9 21.55 21.9 21.25 21.95 20.95 22.05 20.75 22.2 20.5 22.4 20.35 22.65 20.2 22.9 20.2 23.2 20.2 23.55 20.4 23.85 20.55 24.15 20.9 24.3 21.25 24.45 22.1 24.65 22.75 24.85 22.9 24.95 23.15 25.1 23.15 25.35 23.15 25.65 22.9 25.9 22.6 26.1 22.05 26.1 21.55 26.1 21.25 25.85 20.95 25.6 20.85 25.15
L 20.1 25.25
Q 20.2 26 20.7 26.4 21.15 26.75 22.05 26.75 22.6 26.75 23.05 26.55 23.5 26.35 23.7 26.05 23.95 25.65 23.95 25.3 23.95 24.85 23.75 24.6 23.55 24.35 23.25 24.2 22.9 24.05 22.05 23.8
L 21.35 23.6
Q 21.15 23.55 21.05 23.4 20.95 23.3 20.95 23.15 20.95 22.9 21.2 22.7 21.45 22.55 22 22.55
M 29.35 12
Q 29 11.85 28.6 11.85 27.6 11.85 27.1 12.6
L 27.1 11.95 26.4 11.95 26.4 16.6 27.2 16.6 27.2 14.05
Q 27.2 13.15 27.55 12.85 27.9 12.5 28.4 12.5 28.75 12.5 29 12.65 29.2 12.8 29.3 13.05 29.4 13.3 29.4 13.75
L 29.4 16.6 30.2 16.6 30.2 13.75
Q 30.2 13.2 30.15 12.95 30.05 12.6 29.9 12.4 29.7 12.15 29.35 12
M 24.45 11.05
L 25.25 11.05 25.25 10.15 24.45 10.15 24.45 11.05
M 23.05 12.2
Q 22.6 11.85 21.85 11.85 21.25 11.85 20.7 12.1 20.2 12.4 19.95 12.95 19.7 13.55 19.7 14.3 19.7 15.45 20.3 16.1 20.85 16.7 21.8 16.7 22.6 16.7 23.1 16.25 23.65 15.8 23.75 15
L 23 14.9
Q 22.9 15.5 22.6 15.75 22.3 16.05 21.8 16.05 21.25 16.05 20.85 15.65 20.5 15.2 20.5 14.25 20.5 13.35 20.9 12.9 21.25 12.5 21.85 12.5 22.25 12.5 22.55 12.7 22.8 12.95 22.9 13.4
L 23.7 13.3
Q 23.55 12.6 23.05 12.2
M 25.25 11.95
L 24.45 11.95 24.45 16.6 25.25 16.6 25.25 11.95
M 20.45 5
L 20.45 4.3 19.6 4.3 19.6 0.1 18.95 0.1 16 4.3 16 5 18.8 5 18.8 6.55 19.6 6.55 19.6 5 20.45 5
M 18.8 4.3
L 16.8 4.3 18.8 1.4 18.8 4.3
M 23.8 0.45
Q 23.4 0 22.8 0 22.1 0 21.75 0.5 21.4 0.95 21.4 1.65 21.4 2.55 21.8 2.95 22.2 3.4 22.8 3.4 23.35 3.4 23.8 2.95 24.2 2.5 24.2 1.7 24.2 0.85 23.8 0.45
M 22.8 0.55
Q 23.1 0.55 23.3 0.8 23.5 1.05 23.5 1.65 23.5 2.35 23.3 2.6 23.1 2.85 22.8 2.85 22.5 2.85 22.3 2.6 22.1 2.35 22.1 1.75 22.1 1.05 22.3 0.8 22.5 0.55 22.8 0.55
M 26.95 3.4
Q 26.3 3.4 25.95 3.85 25.6 4.35 25.6 5.05 25.6 5.9 26 6.35 26.35 6.8 26.95 6.8 27.55 6.8 27.95 6.35 28.35 5.9 28.35 5.1 28.35 4.25 27.95 3.8 27.55 3.4 26.95 3.4
M 26.95 3.95
Q 27.25 3.95 27.45 4.2 27.65 4.45 27.65 5.05 27.65 5.75 27.45 6 27.25 6.25 26.95 6.25 26.65 6.25 26.5 6 26.3 5.75 26.3 5.1 26.3 4.45 26.5 4.2 26.65 3.95 26.95 3.95
M 26.95 0
L 26.35 0 22.8 6.8 23.45 6.8 26.95 0
M 35.2 11.95
L 34.45 11.95 34.45 12.5
Q 33.95 11.85 33.1 11.85 32.5 11.85 32.05 12.15 31.55 12.45 31.35 13 31.1 13.55 31.1 14.25 31.1 15.2 31.6 15.9 32.15 16.6 33.1 16.6 33.9 16.6 34.4 16 34.4 16.75 34.35 17 34.25 17.4 33.95 17.6 33.65 17.85 33.1 17.85 32.6 17.85 32.3 17.6 32.05 17.45 32 17.1
L 31.25 17
Q 31.25 17.75 31.75 18.1 32.25 18.5 33.1 18.5 33.8 18.5 34.3 18.25 34.75 17.95 35 17.5 35.2 17.05 35.2 15.95
L 35.2 11.95
M 33.15 12.5
Q 33.7 12.5 34.1 12.9 34.45 13.35 34.45 14.2 34.45 15.1 34.1 15.55 33.75 15.95 33.2 15.95 32.65 15.95 32.25 15.5 31.9 15.1 31.9 14.2 31.9 13.35 32.25 12.9 32.65 12.5 33.15 12.5
M 32.5 4.6
L 35.2 4.6 35.95 6.55 36.9 6.55 34.3 0.1 33.35 0.1 30.9 6.55 31.8 6.55 32.5 4.6
M 34.25 2.1
L 34.95 3.9 32.75 3.9 33.45 2
Q 33.7 1.4 33.8 0.8 33.95 1.3 34.25 2.1
M 41.15 26.65
L 41.15 20.2 40.35 20.2 40.35 22.5
Q 40.15 22.25 39.85 22.05 39.5 21.9 39.1 21.9 38.5 21.9 38.05 22.2 37.55 22.5 37.35 23.05 37.1 23.6 37.1 24.3 37.1 25.05 37.35 25.6 37.6 26.15 38.1 26.45 38.55 26.75 39.1 26.75 40 26.75 40.4 26.05
L 40.4 26.65 41.15 26.65
M 40.05 23
Q 40.45 23.45 40.45 24.4 40.45 25.25 40.05 25.7 39.7 26.1 39.2 26.1 38.7 26.1 38.3 25.65 37.9 25.2 37.9 24.3 37.9 23.4 38.3 22.95 38.65 22.55 39.15 22.55 39.7 22.55 40.05 23
M 55.2 24.1
Q 55.2 23.2 55.55 22.9 55.9 22.55 56.4 22.55 56.75 22.55 57 22.7 57.2 22.85 57.3 23.1 57.4 23.35 57.4 23.8
L 57.4 26.65 58.2 26.65 58.2 23.8
Q 58.2 23.25 58.15 23 58.05 22.65 57.9 22.45 57.7 22.2 57.35 22.05 57 21.9 56.6 21.9 55.6 21.9 55.1 22.65
L 55.1 22 54.4 22 54.4 26.65 55.2 26.65 55.2 24.1
M 55.35 13.85
Q 54.95 13.45 54.35 13.45 53.7 13.45 53.35 13.9 53 14.4 53 15.1 53 15.95 53.4 16.4 53.75 16.85 54.35 16.85 54.95 16.85 55.35 16.4 55.75 15.95 55.75 15.15 55.75 14.3 55.35 13.85
M 54.35 14
Q 54.65 14 54.85 14.25 55.05 14.5 55.05 15.1 55.05 15.8 54.85 16.05 54.65 16.3 54.35 16.3 54.05 16.3 53.9 16.05 53.7 15.8 53.7 15.15 53.7 14.5 53.9 14.25 54.05 14 54.35 14
M 49.8 22.4
Q 49.1 23 49.1 24.3 49.1 25.5 49.7 26.15 50.3 26.75 51.3 26.75 51.9 26.75 52.4 26.45 52.95 26.2 53.2 25.65 53.45 25.15 53.45 24.25 53.45 23.15 52.85 22.5 52.25 21.9 51.3 21.9 50.4 21.9 49.8 22.4
M 49.9 24.3
Q 49.9 23.4 50.3 23 50.7 22.55 51.3 22.55 51.85 22.55 52.25 23 52.65 23.4 52.65 24.3 52.65 25.2 52.25 25.65 51.9 26.1 51.3 26.1 50.7 26.1 50.3 25.65 49.9 25.2 49.9 24.3
M 44.9 23
Q 44.65 23.6 44.65 24.35 44.65 25.5 45.25 26.15 45.8 26.75 46.75 26.75 47.55 26.75 48.05 26.3 48.6 25.85 48.7 25.05
L 47.95 24.95
Q 47.85 25.55 47.55 25.8 47.25 26.1 46.75 26.1 46.2 26.1 45.8 25.7 45.45 25.25 45.45 24.3 45.45 23.4 45.85 22.95 46.2 22.55 46.8 22.55 47.2 22.55 47.5 22.75 47.75 23 47.85 23.45
L 48.65 23.35
Q 48.5 22.65 48 22.25 47.55 21.9 46.8 21.9 46.2 21.9 45.65 22.15 45.15 22.45 44.9 23
M 42.65 11.8
Q 42.65 11.1 42.15 10.6 41.6 10.15 40.75 10.15 39.95 10.15 39.45 10.6 38.9 11.1 38.9 11.8 38.9 12.25 39.15 12.6 39.4 12.95 39.9 13.1 39.3 13.25 39 13.7 38.65 14.1 38.65 14.75 38.65 15.6 39.25 16.15 39.85 16.7 40.8 16.7 41.75 16.7 42.35 16.15 42.9 15.6 42.9 14.75 42.9 14.15 42.6 13.75 42.3 13.3 41.7 13.1 42.2 12.95 42.4 12.6 42.65 12.25 42.65 11.8
M 41.55 11.1
Q 41.85 11.35 41.85 11.8 41.85 12.25 41.55 12.5 41.25 12.8 40.8 12.8 40.3 12.8 40.05 12.5 39.75 12.2 39.75 11.75 39.75 11.35 40.05 11.05 40.35 10.8 40.8 10.8 41.25 10.8 41.55 11.1
M 40.75 13.45
Q 41.35 13.45 41.7 13.8 42.1 14.2 42.1 14.75 42.1 15.35 41.75 15.7 41.35 16.05 40.8 16.05 40.45 16.05 40.1 15.9 39.8 15.7 39.65 15.4 39.5 15.1 39.5 14.75 39.5 14.2 39.85 13.8 40.2 13.45 40.75 13.45
M 44.25 10.75
Q 43.65 11.35 43.65 12.3 43.65 13.25 44.25 13.85 44.8 14.4 45.6 14.4 46.05 14.4 46.45 14.2 46.9 13.95 47.1 13.55
L 47.1 13.75
Q 47.1 14.2 47 14.7 46.9 15.15 46.7 15.45 46.55 15.75 46.25 15.9 46 16.05 45.6 16.05 45.2 16.05 44.9 15.8 44.65 15.6 44.55 15.05
L 43.8 15.1
Q 43.9 15.85 44.35 16.3 44.85 16.7 45.6 16.7 46.3 16.7 46.85 16.35 47.35 15.95 47.65 15.2 47.9 14.5 47.9 13.25 47.9 12.05 47.65 11.45 47.35 10.8 46.85 10.45 46.35 10.15 45.7 10.15 44.85 10.15 44.25 10.75
M 44.5 12.35
Q 44.5 11.65 44.9 11.2 45.25 10.8 45.8 10.8 46.3 10.8 46.65 11.2 47.05 11.6 47.05 12.25 47.05 12.95 46.7 13.35 46.3 13.7 45.75 13.7 45.25 13.7 44.85 13.35 44.5 12.95 44.5 12.35
M 42 3.35
Q 42.5 2.8 42.5 1.95 42.5 1.5 42.3 1.1 42.1 0.7 41.8 0.45 41.5 0.25 41 0.15 40.65 0.1 40 0.1
L 37.6 0.1 37.6 6.55 38.45 6.55 38.45 3.95 40.1 3.95
Q 41.45 3.95 42 3.35
M 41.45 1.3
Q 41.65 1.6 41.65 2 41.65 2.55 41.3 2.85 40.95 3.15 40.1 3.15
L 38.45 3.15 38.45 0.85 40.1 0.85
Q 40.65 0.85 40.9 0.95 41.2 1 41.45 1.3
M 48.75 1.85
Q 48.75 1.35 48.5 0.9 48.2 0.45 47.75 0.3 47.35 0.1 46.45 0.1
L 43.6 0.1 43.6 6.55 44.45 6.55 44.45 3.7 45.9 3.7
Q 46.1 3.75 46.3 3.9 46.5 4 46.75 4.3
L 48.2 6.55 49.3 6.55 48.15 4.8
Q 47.85 4.3 47.45 3.95 47.3 3.8 46.95 3.6 47.85 3.5 48.3 3 48.75 2.55 48.75 1.85
M 46.5 0.8
Q 47.2 0.8 47.55 1.1 47.9 1.4 47.9 1.85 47.9 2.2 47.7 2.45 47.55 2.7 47.2 2.85 46.9 2.95 46.3 2.95
L 44.45 2.95 44.45 0.8 46.5 0.8
M 54.35 10.05
L 53.75 10.05 50.2 16.85 50.85 16.85 54.35 10.05
M 51.6 11.75
Q 51.6 10.9 51.2 10.5 50.8 10.05 50.2 10.05 49.5 10.05 49.15 10.55 48.8 11 48.8 11.7 48.8 12.6 49.2 13 49.6 13.45 50.2 13.45 50.75 13.45 51.2 13 51.6 12.55 51.6 11.75
M 50.7 10.85
Q 50.9 11.1 50.9 11.7 50.9 12.4 50.7 12.65 50.5 12.9 50.2 12.9 49.9 12.9 49.7 12.65 49.5 12.4 49.5 11.8 49.5 11.1 49.7 10.85 49.9 10.6 50.2 10.6 50.5 10.6 50.7 10.85
M 53.25 1.9
L 52.45 1.9 52.45 6.55 53.25 6.55 53.25 1.9
M 53.25 1
L 53.25 0.1 52.45 0.1 52.45 1 53.25 1
M 56 2.45
Q 56.45 2.45 56.7 2.65 56.95 2.85 57 3.2
L 57.8 3.1
Q 57.7 2.65 57.5 2.35 57.3 2.1 56.9 1.95 56.5 1.8 55.95 1.8 55.55 1.8 55.25 1.85 54.95 1.95 54.75 2.1 54.5 2.3 54.35 2.55 54.2 2.8 54.2 3.1 54.2 3.45 54.4 3.75 54.55 4.05 54.9 4.2 55.25 4.35 56.1 4.55 56.75 4.75 56.9 4.85 57.15 5 57.15 5.25 57.15 5.55 56.9 5.8 56.6 6 56.05 6 55.55 6 55.25 5.75 54.95 5.5 54.85 5.05
L 54.1 5.15
Q 54.2 5.9 54.7 6.3 55.15 6.65 56.05 6.65 56.6 6.65 57.05 6.45 57.5 6.25 57.7 5.95 57.95 5.55 57.95 5.2 57.95 4.75 57.75 4.5 57.55 4.25 57.25 4.1 56.9 3.95 56.05 3.7
L 55.35 3.5
Q 55.15 3.45 55.05 3.3 54.95 3.2 54.95 3.05 54.95 2.8 55.2 2.6 55.45 2.45 56 2.45
M 76.5 22.65
L 76.5 22 75.8 22 75.8 26.65 76.6 26.65 76.6 24.1
Q 76.6 23.2 76.95 22.9 77.3 22.55 77.8 22.55 78.15 22.55 78.4 22.7 78.6 22.85 78.7 23.1 78.8 23.35 78.8 23.8
L 78.8 26.65 79.6 26.65 79.6 23.8
Q 79.6 23.25 79.55 23 79.45 22.65 79.3 22.45 79.1 22.2 78.75 22.05 78.4 21.9 78 21.9 77 21.9 76.5 22.65
M 74.85 24.25
Q 74.85 23.15 74.25 22.5 73.65 21.9 72.7 21.9 71.8 21.9 71.2 22.4 70.5 23 70.5 24.3 70.5 25.5 71.1 26.15 71.7 26.75 72.7 26.75 73.3 26.75 73.8 26.45 74.35 26.2 74.6 25.65 74.85 25.15 74.85 24.25
M 73.65 23
Q 74.05 23.4 74.05 24.3 74.05 25.2 73.65 25.65 73.3 26.1 72.7 26.1 72.1 26.1 71.7 25.65 71.3 25.2 71.3 24.3 71.3 23.4 71.7 23 72.1 22.55 72.7 22.55 73.25 22.55 73.65 23
M 80.9 15.2
L 80.1 15.1
Q 79.9 15.6 79.6 15.85 79.3 16.05 78.85 16.05 78.25 16.05 77.9 15.65 77.5 15.25 77.45 14.45
L 80.95 14.45 80.95 14.25
Q 80.95 13.1 80.35 12.45 79.75 11.85 78.8 11.85 77.85 11.85 77.25 12.5 76.65 13.15 76.65 14.3 76.65 15.45 77.25 16.1 77.85 16.7 78.85 16.7 79.65 16.7 80.2 16.3 80.7 15.9 80.9 15.2
M 78.8 12.5
Q 79.4 12.5 79.8 12.95 80.05 13.25 80.1 13.8
L 77.5 13.8
Q 77.55 13.2 77.9 12.85 78.25 12.5 78.8 12.5
M 69.65 22
L 68.85 22 68.85 26.65 69.65 26.65 69.65 22
M 67.25 20.35
L 66.5 20.85 66.5 22 65.9 22 65.9 22.6 66.5 22.6 66.5 25.3
Q 66.5 26 66.6 26.2 66.7 26.45 66.9 26.6 67.15 26.7 67.6 26.7 67.85 26.7 68.2 26.65
L 68.05 25.95 67.7 25.95
Q 67.55 25.95 67.45 25.9 67.35 25.85 67.3 25.75 67.25 25.65 67.25 25.35
L 67.25 22.6 68.05 22.6 68.05 22 67.25 22 67.25 20.35
M 69.65 20.2
L 68.85 20.2 68.85 21.1 69.65 21.1 69.65 20.2
M 65.2 22
L 64.4 22 64.4 26.65 65.2 26.65 65.2 22
M 63.15 20.2
L 62.35 20.2 62.35 22.5
Q 62.15 22.25 61.85 22.05 61.5 21.9 61.1 21.9 60.5 21.9 60.05 22.2 59.55 22.5 59.35 23.05 59.1 23.6 59.1 24.3 59.1 25.05 59.35 25.6 59.6 26.15 60.1 26.45 60.55 26.75 61.1 26.75 62 26.75 62.4 26.05
L 62.4 26.65 63.15 26.65 63.15 20.2
M 61.15 22.55
Q 61.7 22.55 62.05 23 62.45 23.45 62.45 24.4 62.45 25.25 62.05 25.7 61.7 26.1 61.2 26.1 60.7 26.1 60.3 25.65 59.9 25.2 59.9 24.3 59.9 23.4 60.3 22.95 60.65 22.55 61.15 22.55
M 64.4 20.2
L 64.4 21.1 65.2 21.1 65.2 20.2 64.4 20.2
M 61.3 16.7
Q 61.9 16.7 62.4 16.4 62.95 16.15 63.2 15.6 63.45 15.1 63.45 14.2 63.45 13.1 62.85 12.45 62.25 11.85 61.3 11.85 60.4 11.85 59.8 12.35 59.1 12.95 59.1 14.25 59.1 15.45 59.7 16.1 60.3 16.7 61.3 16.7
M 61.3 12.5
Q 61.85 12.5 62.25 12.95 62.65 13.35 62.65 14.25 62.65 15.15 62.25 15.6 61.9 16.05 61.3 16.05 60.7 16.05 60.3 15.6 59.9 15.15 59.9 14.25 59.9 13.35 60.3 12.95 60.7 12.5 61.3 12.5
M 69.55 10.8
L 69.55 11.95 68.95 11.95 68.95 12.55 69.55 12.55 69.55 15.25
Q 69.55 15.95 69.65 16.15 69.75 16.4 69.95 16.55 70.2 16.65 70.65 16.65 70.9 16.65 71.25 16.6
L 71.1 15.9 70.75 15.9
Q 70.6 15.9 70.5 15.85 70.4 15.8 70.35 15.7 70.3 15.6 70.3 15.3
L 70.3 12.55 71.1 12.55 71.1 11.95 70.3 11.95 70.3 10.3 69.55 10.8
M 64.65 10.75
Q 64.6 10.95 64.6 11.45
L 64.6 11.95 63.9 11.95 63.9 12.55 64.6 12.55 64.6 16.6 65.35 16.6 65.35 12.55 66.3 12.55 66.3 11.95 65.35 11.95 65.35 11.5
Q 65.35 11.1 65.5 10.95 65.65 10.75 66.05 10.75
L 66.5 10.8 66.6 10.15
Q 66.2 10.05 65.85 10.05 65.35 10.05 65.05 10.25 64.8 10.45 64.65 10.75
M 63.5 0.75
L 63.6 0.1
Q 63.2 0 62.85 0 62.35 0 62.05 0.2 61.8 0.4 61.65 0.7 61.6 0.9 61.6 1.4
L 61.6 1.9 60.9 1.9 60.9 2.5 61.6 2.5 61.6 6.55 62.35 6.55 62.35 2.5 63.3 2.5 63.3 1.9 62.35 1.9 62.35 1.45
Q 62.35 1.05 62.5 0.9 62.65 0.7 63.05 0.7
L 63.5 0.75
M 67.7 5.55
Q 67.95 5.05 67.95 4.15 67.95 3.05 67.35 2.4 66.75 1.8 65.8 1.8 64.9 1.8 64.3 2.3 63.6 2.9 63.6 4.2 63.6 5.4 64.2 6.05 64.8 6.65 65.8 6.65 66.4 6.65 66.9 6.35 67.45 6.1 67.7 5.55
M 67.15 4.2
Q 67.15 5.1 66.75 5.55 66.4 6 65.8 6 65.2 6 64.8 5.55 64.4 5.1 64.4 4.2 64.4 3.3 64.8 2.9 65.2 2.45 65.8 2.45 66.35 2.45 66.75 2.9 67.15 3.3 67.15 4.2
M 75 12.05
Q 74.6 11.85 74.1 11.85 73.25 11.85 72.7 12.45
L 72.7 10.15 71.9 10.15 71.9 16.6 72.7 16.6 72.7 14.05
Q 72.7 13.5 72.8 13.2 72.95 12.85 73.25 12.7 73.55 12.5 73.9 12.5 74.4 12.5 74.65 12.8 74.9 13.05 74.9 13.65
L 74.9 16.6 75.7 16.6 75.7 13.65
Q 75.7 12.95 75.55 12.6 75.35 12.25 75 12.05
M 71.15 2.75
L 71.4 2.05
Q 71 1.8 70.6 1.8 70.35 1.8 70.1 1.95 69.85 2.1 69.6 2.6
L 69.6 1.9 68.9 1.9 68.9 6.55 69.7 6.55 69.7 4.1
Q 69.7 3.6 69.8 3.2 69.9 2.9 70.1 2.75 70.3 2.6 70.55 2.6 70.85 2.6 71.15 2.75
M 77.85 2.25
Q 77.65 2.05 77.3 1.9 76.9 1.8 76.3 1.8 75.7 1.8 75.25 1.95 74.8 2.1 74.55 2.4 74.3 2.7 74.2 3.2
L 75 3.3
Q 75.1 2.8 75.4 2.65 75.65 2.45 76.2 2.45 76.8 2.45 77.1 2.7 77.35 2.9 77.35 3.4
L 77.3 3.6
Q 76.85 3.75 75.9 3.85
L 75.2 4
Q 74.9 4.05 74.65 4.25 74.4 4.4 74.25 4.7 74.1 5 74.1 5.3 74.1 5.9 74.5 6.3 74.9 6.65 75.65 6.65 76.15 6.65 76.55 6.5 76.95 6.35 77.4 5.95 77.4 6.3 77.55 6.55
L 78.35 6.55
Q 78.2 6.3 78.2 6 78.1 5.7 78.1 4.6
L 78.1 3.55
Q 78.1 3 78.1 2.8 78 2.5 77.85 2.25
M 77.3 4.5
Q 77.3 5 77.2 5.3 77.05 5.65 76.65 5.85 76.3 6.05 75.85 6.05 75.4 6.05 75.15 5.8 74.9 5.6 74.9 5.3 74.9 5.1 75.05 4.9 75.15 4.75 75.35 4.65 75.55 4.6 76.05 4.5 76.9 4.4 77.3 4.2
L 77.3 4.5
M 108.75 26.65
L 109.65 26.65 109.65 25.75 108.75 25.75 108.75 26.65
M 93.5 22
L 92.8 22 92.8 28.45 93.6 28.45 93.6 26.15
Q 93.8 26.4 94.1 26.6 94.4 26.75 94.8 26.75 95.35 26.75 95.85 26.45 96.35 26.15 96.6 25.55 96.85 25 96.85 24.3 96.85 23.6 96.6 23.05 96.4 22.5 95.9 22.2 95.45 21.9 94.85 21.9 94.4 21.9 94.1 22.05 93.75 22.25 93.5 22.6
L 93.5 22
M 95.65 22.95
Q 96.05 23.4 96.05 24.3 96.05 25.2 95.65 25.65 95.3 26.1 94.75 26.1 94.25 26.1 93.85 25.65 93.5 25.25 93.5 24.35 93.5 23.45 93.9 22.95 94.3 22.5 94.8 22.5 95.3 22.5 95.65 22.95
M 88 22.5
Q 87.75 22.8 87.65 23.3
L 88.45 23.4
Q 88.55 22.9 88.85 22.75 89.1 22.55 89.65 22.55 90.25 22.55 90.55 22.8 90.8 23 90.8 23.5
L 90.75 23.7
Q 90.3 23.85 89.35 23.95
L 88.65 24.1
Q 88.35 24.15 88.1 24.35 87.85 24.5 87.7 24.8 87.55 25.1 87.55 25.4 87.55 26 87.95 26.4 88.35 26.75 89.1 26.75 89.6 26.75 90 26.6 90.4 26.45 90.85 26.05 90.85 26.4 91 26.65
L 91.8 26.65
Q 91.65 26.4 91.65 26.1 91.55 25.8 91.55 24.7
L 91.55 23.65
Q 91.55 23.1 91.55 22.9 91.45 22.6 91.3 22.35 91.1 22.15 90.75 22 90.35 21.9 89.75 21.9 89.15 21.9 88.7 22.05 88.25 22.2 88 22.5
M 90.75 24.3
L 90.75 24.6
Q 90.75 25.1 90.65 25.4 90.5 25.75 90.1 25.95 89.75 26.15 89.3 26.15 88.85 26.15 88.6 25.9 88.35 25.7 88.35 25.4 88.35 25.2 88.5 25 88.6 24.85 88.8 24.75 89 24.7 89.5 24.6 90.35 24.5 90.75 24.3
M 83.3 22.05
Q 82.9 21.9 82.35 21.9 81.95 21.9 81.65 21.95 81.35 22.05 81.15 22.2 80.9 22.4 80.75 22.65 80.6 22.9 80.6 23.2 80.6 23.55 80.8 23.85 80.95 24.15 81.3 24.3 81.65 24.45 82.5 24.65 83.15 24.85 83.3 24.95 83.55 25.1 83.55 25.35 83.55 25.65 83.3 25.9 83 26.1 82.45 26.1 81.95 26.1 81.65 25.85 81.35 25.6 81.25 25.15
L 80.5 25.25
Q 80.6 26 81.1 26.4 81.55 26.75 82.45 26.75 83 26.75 83.45 26.55 83.9 26.35 84.1 26.05 84.35 25.65 84.35 25.3 84.35 24.85 84.15 24.6 83.95 24.35 83.65 24.2 83.3 24.05 82.45 23.8
L 81.75 23.6
Q 81.55 23.55 81.45 23.4 81.35 23.3 81.35 23.15 81.35 22.9 81.6 22.7 81.85 22.55 82.4 22.55 82.85 22.55 83.1 22.75 83.35 22.95 83.4 23.3
L 84.2 23.2
Q 84.1 22.75 83.9 22.45 83.7 22.2 83.3 22.05
M 84.75 11.95
L 83.9 11.95 85.7 16.6 86.45 16.6 88.2 11.95 87.4 11.95 86.05 15.65 84.75 11.95
M 85.55 1.75
Q 85.55 1.3 85.3 0.95 85.05 0.55 84.6 0.3 84.15 0.1 83.65 0.1 82.9 0.1 82.35 0.5 81.85 0.95 81.7 1.75
L 82.5 1.9
Q 82.6 1.3 82.9 1 83.2 0.75 83.65 0.75 84.15 0.75 84.4 1 84.7 1.3 84.7 1.75 84.7 2.3 84.3 2.55 83.9 2.8 83.4 2.8
L 83.3 2.8 83.2 3.5
Q 83.5 3.4 83.75 3.4 84.3 3.4 84.65 3.75 85 4.1 85 4.65 85 5.25 84.65 5.6 84.25 6 83.7 6 83.2 6 82.9 5.7 82.55 5.4 82.4 4.75
L 81.65 4.85
Q 81.7 5.65 82.25 6.15 82.85 6.65 83.7 6.65 84.6 6.65 85.25 6.1 85.85 5.5 85.85 4.65 85.85 4 85.55 3.6 85.2 3.2 84.65 3.05 85.1 2.85 85.3 2.5 85.55 2.15 85.55 1.75
M 90.3 2.95
Q 89.75 2.35 88.95 2.35 88.5 2.35 88.05 2.6 87.65 2.8 87.4 3.25 87.4 2.25 87.6 1.75 87.8 1.2 88.2 0.95 88.45 0.75 88.85 0.75 89.3 0.75 89.65 1.05 89.85 1.3 89.95 1.75
L 90.75 1.7
Q 90.65 0.95 90.15 0.5 89.65 0.1 88.9 0.1 87.9 0.1 87.3 0.8 86.6 1.65 86.6 3.55 86.6 5.2 87.2 5.95 87.85 6.65 88.85 6.65 89.4 6.65 89.85 6.4 90.3 6.1 90.6 5.6 90.85 5.05 90.85 4.45 90.85 3.55 90.3 2.95
M 87.65 5.25
Q 87.5 4.85 87.5 4.45 87.5 3.85 87.85 3.45 88.25 3.05 88.8 3.05 89.3 3.05 89.7 3.45 90.05 3.85 90.05 4.5 90.05 5.2 89.65 5.6 89.3 6 88.8 6 88.45 6 88.15 5.8 87.85 5.6 87.65 5.25
M 99.6 11.95
L 98.8 11.95 98.8 14.45
Q 98.8 15.05 98.7 15.35 98.55 15.65 98.25 15.85 97.95 16 97.6 16 97.2 16 97 15.85 96.75 15.65 96.65 15.35 96.6 15.15 96.6 14.5
L 96.6 11.95 95.85 11.95 95.85 14.8
Q 95.85 15.35 95.85 15.55 95.95 15.9 96.1 16.15 96.3 16.4 96.65 16.55 97 16.7 97.4 16.7 98.35 16.7 98.9 15.9
L 98.9 16.6 99.6 16.6 99.6 11.95
M 94.65 10.15
L 93.9 10.15 93.9 16.6 94.65 16.6 94.65 10.15
M 92.4 12.3
Q 92.2 12.1 91.85 11.95 91.45 11.85 90.85 11.85 90.25 11.85 89.8 12 89.35 12.15 89.1 12.45 88.85 12.75 88.75 13.25
L 89.55 13.35
Q 89.65 12.85 89.95 12.7 90.2 12.5 90.75 12.5 91.35 12.5 91.65 12.75 91.9 12.95 91.9 13.45
L 91.85 13.65
Q 91.4 13.8 90.45 13.9
L 89.75 14.05
Q 89.45 14.1 89.2 14.3 88.95 14.45 88.8 14.75 88.65 15.05 88.65 15.35 88.65 15.95 89.05 16.35 89.45 16.7 90.2 16.7 90.7 16.7 91.1 16.55 91.5 16.4 91.95 16 91.95 16.35 92.1 16.6
L 92.9 16.6
Q 92.75 16.35 92.75 16.05 92.65 15.75 92.65 14.65
L 92.65 13.6
Q 92.65 13.05 92.65 12.85 92.55 12.55 92.4 12.3
M 89.45 15.35
Q 89.45 15.15 89.6 14.95 89.7 14.8 89.9 14.7 90.1 14.65 90.6 14.55 91.45 14.45 91.85 14.25
L 91.85 14.55
Q 91.85 15.05 91.75 15.35 91.6 15.7 91.2 15.9 90.85 16.1 90.4 16.1 89.95 16.1 89.7 15.85 89.45 15.65 89.45 15.35
M 99.5 2.6
Q 99.75 2.7 99.8 2.95 99.9 3.15 99.9 3.6
L 99.9 6.55 100.65 6.55 100.65 3.35
Q 100.65 2.55 100.3 2.15 99.9 1.8 99.25 1.8 98.35 1.8 97.8 2.6 97.65 2.2 97.3 2 97 1.8 96.45 1.8 96 1.8 95.65 2 95.25 2.2 95.05 2.55
L 95.05 1.9 94.35 1.9 94.35 6.55 95.15 6.55 95.15 4.15
Q 95.15 3.5 95.25 3.15 95.4 2.8 95.65 2.65 95.95 2.45 96.3 2.45 96.75 2.45 96.9 2.75 97.1 3 97.1 3.5
L 97.1 6.55 97.9 6.55 97.9 3.85
Q 97.9 3.1 98.25 2.8 98.55 2.45 99.05 2.45 99.3 2.45 99.5 2.6
M 103.55 20.2
L 102.8 20.2 102.8 26.65 103.55 26.65 103.55 20.2
M 106.1 24.7
L 105.15 22 104.3 22 106.05 26.65 106 26.85 105.75 27.45
Q 105.65 27.6 105.5 27.7 105.35 27.8 105.05 27.8 104.9 27.8 104.6 27.7
L 104.7 28.45
Q 105 28.55 105.2 28.55 105.6 28.55 105.85 28.35 106.15 28.2 106.35 27.8 106.5 27.5 106.8 26.75
L 108.55 22 107.8 22 106.8 24.7
Q 106.6 25.2 106.45 25.75 106.3 25.2 106.1 24.7
M 101.85 24.3
Q 101.85 23.6 101.6 23.05 101.4 22.5 100.9 22.2 100.45 21.9 99.85 21.9 99.4 21.9 99.1 22.05 98.75 22.25 98.5 22.6
L 98.5 22 97.8 22 97.8 28.45 98.6 28.45 98.6 26.15
Q 98.8 26.4 99.1 26.6 99.4 26.75 99.8 26.75 100.35 26.75 100.85 26.45 101.35 26.15 101.6 25.55 101.85 25 101.85 24.3
M 100.65 22.95
Q 101.05 23.4 101.05 24.3 101.05 25.2 100.65 25.65 100.3 26.1 99.75 26.1 99.25 26.1 98.85 25.65 98.5 25.25 98.5 24.35 98.5 23.45 98.9 22.95 99.3 22.5 99.8 22.5 100.3 22.5 100.65 22.95
M 104.9 14.45
L 104.9 14.25
Q 104.9 13.1 104.3 12.45 103.7 11.85 102.75 11.85 101.8 11.85 101.2 12.5 100.6 13.15 100.6 14.3 100.6 15.45 101.2 16.1 101.8 16.7 102.8 16.7 103.6 16.7 104.15 16.3 104.65 15.9 104.85 15.2
L 104.05 15.1
Q 103.85 15.6 103.55 15.85 103.25 16.05 102.8 16.05 102.2 16.05 101.85 15.65 101.45 15.25 101.4 14.45
L 104.9 14.45
M 101.85 12.85
Q 102.2 12.5 102.75 12.5 103.35 12.5 103.75 12.95 104 13.25 104.05 13.8
L 101.45 13.8
Q 101.5 13.2 101.85 12.85
M 110.25 11.85
Q 109.35 11.85 108.75 12.35 108.05 12.95 108.05 14.25 108.05 15.45 108.65 16.1 109.25 16.7 110.25 16.7 110.85 16.7 111.35 16.4 111.9 16.15 112.15 15.6 112.4 15.1 112.4 14.2 112.4 13.1 111.8 12.45 111.2 11.85 110.25 11.85
M 110.25 12.5
Q 110.8 12.5 111.2 12.95 111.6 13.35 111.6 14.25 111.6 15.15 111.2 15.6 110.85 16.05 110.25 16.05 109.65 16.05 109.25 15.6 108.85 15.15 108.85 14.25 108.85 13.35 109.25 12.95 109.65 12.5 110.25 12.5
M 103.7 1.8
Q 102.8 1.8 102.2 2.3 101.5 2.9 101.5 4.2 101.5 5.4 102.1 6.05 102.7 6.65 103.7 6.65 104.3 6.65 104.8 6.35 105.35 6.1 105.6 5.55 105.85 5.05 105.85 4.15 105.85 3.05 105.25 2.4 104.65 1.8 103.7 1.8
M 102.7 2.9
Q 103.1 2.45 103.7 2.45 104.25 2.45 104.65 2.9 105.05 3.3 105.05 4.2 105.05 5.1 104.65 5.55 104.3 6 103.7 6 103.1 6 102.7 5.55 102.3 5.1 102.3 4.2 102.3 3.3 102.7 2.9
M 110.55 2.9
Q 110.45 2.55 110.3 2.35 110.1 2.1 109.75 1.95 109.4 1.8 109 1.8 108 1.8 107.5 2.55
L 107.5 1.9 106.8 1.9 106.8 6.55 107.6 6.55 107.6 4
Q 107.6 3.1 107.95 2.8 108.3 2.45 108.8 2.45 109.15 2.45 109.4 2.6 109.6 2.75 109.7 3 109.8 3.25 109.8 3.7
L 109.8 6.55 110.6 6.55 110.6 3.7
Q 110.6 3.15 110.55 2.9
M 118.5 10.8
L 118.5 11.95 117.9 11.95 117.9 12.55 118.5 12.55 118.5 15.25
Q 118.5 15.95 118.6 16.15 118.7 16.4 118.9 16.55 119.15 16.65 119.6 16.65 119.85 16.65 120.2 16.6
L 120.05 15.9 119.7 15.9
Q 119.55 15.9 119.45 15.85 119.35 15.8 119.3 15.7 119.25 15.6 119.25 15.3
L 119.25 12.55 120.05 12.55 120.05 11.95 119.25 11.95 119.25 10.3 118.5 10.8
M 113.55 11.45
L 113.55 11.95 112.85 11.95 112.85 12.55 113.55 12.55 113.55 16.6 114.3 16.6 114.3 12.55 115.25 12.55 115.25 11.95 114.3 11.95 114.3 11.5
Q 114.3 11.1 114.45 10.95 114.6 10.75 115 10.75
L 115.45 10.8 115.55 10.15
Q 115.15 10.05 114.8 10.05 114.3 10.05 114 10.25 113.75 10.45 113.6 10.75 113.55 10.95 113.55 11.45
M 113.5 2.5
L 113.5 1.9 112.7 1.9 112.7 0.25 111.95 0.75 111.95 1.9 111.35 1.9 111.35 2.5 111.95 2.5 111.95 5.2
Q 111.95 5.9 112.05 6.1 112.15 6.35 112.35 6.5 112.6 6.6 113.05 6.6 113.3 6.6 113.65 6.55
L 113.5 5.85 113.15 5.85
Q 113 5.85 112.9 5.8 112.8 5.75 112.75 5.65 112.7 5.55 112.7 5.25
L 112.7 2.5 113.5 2.5
M 117.4 2
Q 117 1.8 116.5 1.8 115.65 1.8 115.1 2.4
L 115.1 0.1 114.3 0.1 114.3 6.55 115.1 6.55 115.1 4
Q 115.1 3.45 115.2 3.15 115.35 2.8 115.65 2.65 115.95 2.45 116.3 2.45 116.8 2.45 117.05 2.75 117.3 3 117.3 3.6
L 117.3 6.55 118.1 6.55 118.1 3.6
Q 118.1 2.9 117.95 2.55 117.75 2.2 117.4 2
M 129.9 14.25
Q 129.9 13.1 129.3 12.45 128.7 11.85 127.75 11.85 126.8 11.85 126.2 12.5 125.6 13.15 125.6 14.3 125.6 15.45 126.2 16.1 126.8 16.7 127.8 16.7 128.6 16.7 129.15 16.3 129.65 15.9 129.85 15.2
L 129.05 15.1
Q 128.85 15.6 128.55 15.85 128.25 16.05 127.8 16.05 127.2 16.05 126.85 15.65 126.45 15.25 126.4 14.45
L 129.9 14.45 129.9 14.25
M 127.75 12.5
Q 128.35 12.5 128.75 12.95 129 13.25 129.05 13.8
L 126.45 13.8
Q 126.5 13.2 126.85 12.85 127.2 12.5 127.75 12.5
M 123.95 12.05
Q 123.55 11.85 123.05 11.85 122.2 11.85 121.65 12.45
L 121.65 10.15 120.85 10.15 120.85 16.6 121.65 16.6 121.65 14.05
Q 121.65 13.5 121.75 13.2 121.9 12.85 122.2 12.7 122.5 12.5 122.85 12.5 123.35 12.5 123.6 12.8 123.85 13.05 123.85 13.65
L 123.85 16.6 124.65 16.6 124.65 13.65
Q 124.65 12.95 124.5 12.6 124.3 12.25 123.95 12.05
M 122.55 0.1
L 121.8 0.1 121.8 6.55 122.55 6.55 122.55 0.1
M 127.55 5.55
Q 127.8 5.05 127.8 4.15 127.8 3.05 127.2 2.4 126.6 1.8 125.65 1.8 124.75 1.8 124.15 2.3 123.45 2.9 123.45 4.2 123.45 5.4 124.05 6.05 124.65 6.65 125.65 6.65 126.25 6.65 126.75 6.35 127.3 6.1 127.55 5.55
M 127 4.2
Q 127 5.1 126.6 5.55 126.25 6 125.65 6 125.05 6 124.65 5.55 124.25 5.1 124.25 4.2 124.25 3.3 124.65 2.9 125.05 2.45 125.65 2.45 126.2 2.45 126.6 2.9 127 3.3 127 4.2
M 133.7 11.95
L 132.85 11.95 134.65 16.6 135.4 16.6 137.15 11.95 136.35 11.95 135 15.65 133.7 11.95
M 132.5 2.8
Q 132.4 2.5 132.25 2.25 132.05 2.05 131.7 1.9 131.3 1.8 130.7 1.8 130.1 1.8 129.65 1.95 129.2 2.1 128.95 2.4 128.7 2.7 128.6 3.2
L 129.4 3.3
Q 129.5 2.8 129.8 2.65 130.05 2.45 130.6 2.45 131.2 2.45 131.5 2.7 131.75 2.9 131.75 3.4
L 131.7 3.6
Q 131.25 3.75 130.3 3.85
L 129.6 4
Q 129.3 4.05 129.05 4.25 128.8 4.4 128.65 4.7 128.5 5 128.5 5.3 128.5 5.9 128.9 6.3 129.3 6.65 130.05 6.65 130.55 6.65 130.95 6.5 131.35 6.35 131.8 5.95 131.8 6.3 131.95 6.55
L 132.75 6.55
Q 132.6 6.3 132.6 6 132.5 5.7 132.5 4.6
L 132.5 3.55
Q 132.5 3 132.5 2.8
M 131.7 4.2
L 131.7 4.5
Q 131.7 5 131.6 5.3 131.45 5.65 131.05 5.85 130.7 6.05 130.25 6.05 129.8 6.05 129.55 5.8 129.3 5.6 129.3 5.3 129.3 5.1 129.45 4.9 129.55 4.75 129.75 4.65 129.95 4.6 130.45 4.5 131.3 4.4 131.7 4.2
M 137.25 2.35
Q 137.05 2.1 136.7 1.95 136.35 1.8 135.95 1.8 134.95 1.8 134.45 2.55
L 134.45 1.9 133.75 1.9 133.75 6.55 134.55 6.55 134.55 4
Q 134.55 3.1 134.9 2.8 135.25 2.45 135.75 2.45 136.1 2.45 136.35 2.6 136.55 2.75 136.65 3 136.75 3.25 136.75 3.7
L 136.75 6.55 137.55 6.55 137.55 3.7
Q 137.55 3.15 137.5 2.9 137.4 2.55 137.25 2.35
M 160.3 14.25
Q 160.3 13.1 159.7 12.45 159.1 11.85 158.15 11.85 157.2 11.85 156.6 12.5 156 13.15 156 14.3 156 15.45 156.6 16.1 157.2 16.7 158.2 16.7 159 16.7 159.55 16.3 160.05 15.9 160.25 15.2
L 159.45 15.1
Q 159.25 15.6 158.95 15.85 158.65 16.05 158.2 16.05 157.6 16.05 157.25 15.65 156.85 15.25 156.8 14.45
L 160.3 14.45 160.3 14.25
M 158.15 12.5
Q 158.75 12.5 159.15 12.95 159.4 13.25 159.45 13.8
L 156.85 13.8
Q 156.9 13.2 157.25 12.85 157.6 12.5 158.15 12.5
M 141.9 14.45
L 141.9 14.25
Q 141.9 13.1 141.3 12.45 140.7 11.85 139.75 11.85 138.8 11.85 138.2 12.5 137.6 13.15 137.6 14.3 137.6 15.45 138.2 16.1 138.8 16.7 139.8 16.7 140.6 16.7 141.15 16.3 141.65 15.9 141.85 15.2
L 141.05 15.1
Q 140.85 15.6 140.55 15.85 140.25 16.05 139.8 16.05 139.2 16.05 138.85 15.65 138.45 15.25 138.4 14.45
L 141.9 14.45
M 140.75 12.95
Q 141 13.25 141.05 13.8
L 138.45 13.8
Q 138.5 13.2 138.85 12.85 139.2 12.5 139.75 12.5 140.35 12.5 140.75 12.95
M 148.65 11.05
L 148.65 10.15 147.85 10.15 147.85 11.05 148.65 11.05
M 148.65 11.95
L 147.85 11.95 147.85 16.6 148.65 16.6 148.65 11.95
M 151.7 11.85
Q 151.1 11.85 150.55 12.1 150.05 12.4 149.8 12.95 149.55 13.55 149.55 14.3 149.55 15.45 150.15 16.1 150.7 16.7 151.65 16.7 152.45 16.7 152.95 16.25 153.5 15.8 153.6 15
L 152.85 14.9
Q 152.75 15.5 152.45 15.75 152.15 16.05 151.65 16.05 151.1 16.05 150.7 15.65 150.35 15.2 150.35 14.25 150.35 13.35 150.75 12.9 151.1 12.5 151.7 12.5 152.1 12.5 152.4 12.7 152.65 12.95 152.75 13.4
L 153.55 13.3
Q 153.4 12.6 152.9 12.2 152.45 11.85 151.7 11.85
M 145.95 12.05
Q 145.55 11.85 145.05 11.85 144.2 11.85 143.65 12.45
L 143.65 10.15 142.85 10.15 142.85 16.6 143.65 16.6 143.65 14.05
Q 143.65 13.5 143.75 13.2 143.9 12.85 144.2 12.7 144.5 12.5 144.85 12.5 145.35 12.5 145.6 12.8 145.85 13.05 145.85 13.65
L 145.85 16.6 146.65 16.6 146.65 13.65
Q 146.65 12.95 146.5 12.6 146.3 12.25 145.95 12.05
M 145 2.8
Q 144.9 2.5 144.75 2.25 144.55 2.05 144.2 1.9 143.8 1.8 143.2 1.8 142.6 1.8 142.15 1.95 141.7 2.1 141.45 2.4 141.2 2.7 141.1 3.2
L 141.9 3.3
Q 142 2.8 142.3 2.65 142.55 2.45 143.1 2.45 143.7 2.45 144 2.7 144.25 2.9 144.25 3.4
L 144.2 3.6
Q 143.75 3.75 142.8 3.85
L 142.1 4
Q 141.8 4.05 141.55 4.25 141.3 4.4 141.15 4.7 141 5 141 5.3 141 5.9 141.4 6.3 141.8 6.65 142.55 6.65 143.05 6.65 143.45 6.5 143.85 6.35 144.3 5.95 144.3 6.3 144.45 6.55
L 145.25 6.55
Q 145.1 6.3 145.1 6 145 5.7 145 4.6
L 145 3.55
Q 145 3 145 2.8
M 144.2 4.2
L 144.2 4.5
Q 144.2 5 144.1 5.3 143.95 5.65 143.55 5.85 143.2 6.05 142.75 6.05 142.3 6.05 142.05 5.8 141.8 5.6 141.8 5.3 141.8 5.1 141.95 4.9 142.05 4.75 142.25 4.65 142.45 4.6 142.95 4.5 143.8 4.4 144.2 4.2
M 150 2.9
Q 149.9 2.55 149.75 2.35 149.55 2.1 149.2 1.95 148.85 1.8 148.45 1.8 147.45 1.8 146.95 2.55
L 146.95 1.9 146.25 1.9 146.25 6.55 147.05 6.55 147.05 4
Q 147.05 3.1 147.4 2.8 147.75 2.45 148.25 2.45 148.6 2.45 148.85 2.6 149.05 2.75 149.15 3 149.25 3.25 149.25 3.7
L 149.25 6.55 150.05 6.55 150.05 3.7
Q 150.05 3.15 150 2.9
M 155.05 10.15
L 154.3 10.15 154.3 16.6 155.05 16.6 155.05 10.15
M 154.2 0.1
L 154.2 2.4
Q 154 2.15 153.7 1.95 153.35 1.8 152.95 1.8 152.35 1.8 151.9 2.1 151.4 2.4 151.2 2.95 150.95 3.5 150.95 4.2 150.95 4.95 151.2 5.5 151.45 6.05 151.95 6.35 152.4 6.65 152.95 6.65 153.85 6.65 154.25 5.95
L 154.25 6.55 155 6.55 155 0.1 154.2 0.1
M 153 2.45
Q 153.55 2.45 153.9 2.9 154.3 3.35 154.3 4.3 154.3 5.15 153.9 5.6 153.55 6 153.05 6 152.55 6 152.15 5.55 151.75 5.1 151.75 4.2 151.75 3.3 152.15 2.85 152.5 2.45 153 2.45
M 162.35 16.6
L 162.35 15.7 161.45 15.7 161.45 16.6 162.35 16.6 Z"/>
</g>
</defs>

<g transform="matrix( 1, 0, 0, 1, 0,0) ">
<use xlink:href="#Layer0_0_FILL"/>
</g>
</svg>
