
<svg xmlns="http://www.w3.org/2000/svg" version="1.1" xmlns:xlink="http://www.w3.org/1999/xlink" preserveAspectRatio="none" x="0px" y="0px" width="100px" height="100px" viewBox="0 0 100 100">
<defs>
<g id="Layer0_0_FILL">
<path fill="#FFFFFF" stroke="none" d="
M 49.95 62.3
L 49.85 62.3
Q 49.919921875 62.326171875 49.95 62.35
L 49.95 62.3
M 49.9 62.55
L 49.9 62.5 49.65 62.3 49.9 62.55
M 50.1 62.5
L 50.05 62.55 50.1 62.65 50 62.6 49.95 62.6 50.15 62.8 50.15 62.75
Q 50.148828125 62.62421875 50.1 62.5
M 50.1 62.3
L 50.05 62.3 50.05 62.35
Q 50.0904296875 62.320703125 50.1 62.3
M 50.4 62.25
L 50.35 62.25
Q 50.2349609375 62.2509765625 50.1 62.3
L 50.3 62.3 50 62.4
Q 50.0498046875 62.44921875 50.05 62.45
L 50.1 62.5 50.4 62.25
M 4.4 35.2
Q 0.173828125 37.2146484375 0.55 44.15
L 0.55 44.15
Q 0.8068359375 46.683203125 2.35 49.6
L 2.35 49.6
Q 5.5603515625 55.5423828125 12.3 58.15
L 12.35 58.2
Q 20.55 61.75 28.05 64.95 33.05625 67.05859375 37.8 68.95
L 33.15 66.1
Q 32.9 65.975 32.65 65.8
L 32.6 65.8
Q 25.847265625 61.2998046875 20.55 56.9 3.3900390625 42.7880859375 8.1 34.6 6.18828125 34.5140625 4.35 35.2
L 4.4 35.2
M 16.4 14.5
L 16.45 14.5
Q 14.3974609375 15.3607421875 12.65 17
L 12.65 17.05
Q 8.560546875 22.0314453125 9.15 28.7 9.4451171875 32.076171875 10.3 34.45
L 10.3 34.5
Q 12.437109375 41.362109375 27.75 55.75
L 27.7 55.75
Q 33.55078125 60.61171875 39.9 65
L 39.9 64.95
Q 41.634765625 66.144921875 43.35 67.25 42.772265625 66.8029296875 41.75 65.75
L 41.7 65.7
Q 40.1267578125 63.977734375 37.35 60.65 32.0234375 54.1912109375 31.25 52.6 26.571875 46.56875 22.7 38.55
L 22.7 38.55 19.8 31.8
Q 16.5693359375 24.362109375 19.15 20.2 19.1875 20.175 19.2 20.15 20.495703125 18.343359375 22 17.7 21.1072265625 15.4451171875 19.75 14.6 18.3640625 13.75390625 16.4 14.5
M 32.8 6.3
L 32.8 6.25
Q 30.5748046875 6.8236328125 27.6 9.5
L 27.55 9.5
Q 22.8013671875 14.2767578125 24.3 22.7 25.887109375 31.7978515625 33 43.9
L 33 43.85 46.7 64.15 47.1 63.95 37.8 35.6
Q 35.5638671875 30.212109375 34.6 24.35 32.5931640625 12.581640625 39.4 10.7 39.5025390625 10.19609375 38.65 8.15
L 38.65 8.15
Q 37.080859375 5.3328125 32.8 6.3
M 58 12
Q 58.3869140625 9.334765625 57.5 6.5 55.959375 1.3056640625 50.4 0.6 50.3044921875 0.5810546875 50.2 0.5 50.1646484375 0.4736328125 50.1 0.4 50.0017578125 0.2873046875 50 0.1 49.9982421875 0.2873046875 49.85 0.4 49.834765625 0.4744140625 49.75 0.5 49.6947265625 0.58125 49.55 0.6 44.040625 1.3056640625 42.45 6.5 41.612890625 9.334765625 42 12
L 50 62.05 58 12
M 72.4 9.5
L 72.4 9.5
Q 69.425 6.8236328125 67.15 6.25
L 67.2 6.3
Q 62.9189453125 5.3328125 61.35 8.15
L 61.35 8.15
Q 60.4720703125 10.1921875 60.6 10.7 67.3548828125 12.5796875 65.4 24.35 64.436328125 30.2119140625 62.15 35.6
L 52.9 63.95 53.25 64.15 66.95 43.85 66.95 43.9
Q 74.1126953125 31.7978515625 75.7 22.7 77.1984375 14.276953125 72.4 9.5
M 95.55 35.2
L 95.55 35.2
Q 94.3859375 34.74921875 93.15 34.65 92.5330078125 34.591796875 91.9 34.6 96.5564453125 42.7904296875 79.4 56.9 74.1525390625 61.2998046875 67.35 65.8
L 67.35 65.8
Q 67.1 65.975 66.85 66.1
L 62.25 68.9
Q 66.945703125 67.03515625 71.95 64.95 79.45 61.75 87.65 58.2
L 87.65 58.15
Q 90.605078125 57.00546875 92.9 55.25 95.858984375 52.91171875 97.65 49.6
L 97.65 49.6
Q 99.2005859375 46.6689453125 99.45 44.15 99.8248046875 37.2150390625 95.55 35.2
M 87.25 17
Q 85.601171875 15.361328125 83.55 14.5
L 83.55 14.5
Q 81.6357421875 13.75390625 80.2 14.6 78.8916015625 15.445703125 78 17.7 79.4990234375 18.3552734375 80.75 20.15
L 80.75 20.15
Q 83.4330078125 24.348828125 80.2 31.8
L 77.3 38.55 77.3 38.55
Q 73.4279296875 46.56875 68.75 52.6 67.9705078125 54.1986328125 62.6 60.65 59.8240234375 63.976171875 58.25 65.7
L 58.25 65.75
Q 57.2673828125 66.762109375 56.65 67.2 58.39453125 66.1248046875 60.05 64.95
L 60.05 65
Q 66.399609375 60.6119140625 72.25 55.75
L 72.25 55.75
Q 87.562890625 41.362109375 89.65 34.5
L 89.65 34.45
Q 90.5546875 32.076171875 90.85 28.7 91.3908203125 22.0314453125 87.3 17.05
L 87.25 17
M 59.55 80.5
Q 58.85 82.55 58.85 85.55 58.85 87.45 59.1 88.75 59.3 89.9 59.9 91.6 60.4 92.95 61.3 94.1 62.2 95.3 63.25 96 64.4 96.85 65.6 97.1 66.95 97.45 68.45 97.45 70.65 97.45 72.15 96.7 73.75 95.85 74.75 94.65 75.85 93.4 76.3 92.15 76.7 91 76.7 89.7 76.7 88.95 76.2 88.3 75.65 87.7 74.95 87.7 74.1 87.7 73.75 88.25 73.3 88.95 73.1 89.8 72.4 91.75 71.25 92.7 70.05 93.7 68.3 93.7 66.7 93.7 65.45 92.85 64.25 91.95 63.6 90.15 62.95 88.45 62.95 85.65 62.95 81.65 64.4 79.45 65.95 77.3 68.4 77.3 70.05 77.3 71.1 78.1 72.2 79 72.9 80.65 73.35 81.6 73.8 82.15 74.2 82.55 75 82.55 75.7 82.55 76.15 82 76.65 81.4 76.65 80.5 76.65 79 75.65 77.4 74.7 75.75 72.7 74.7 70.8 73.55 68.4 73.55 66.3 73.55 64.6 74.35 62.95 75.05 61.55 76.7 60.15 78.35 59.55 80.5
M 55.65 73.9
L 46.1 73.9
Q 45.35 73.9 44.7 74.25 44.2 74.5 43.9 75.1 43.6 75.7 43.6 76.75
L 43.6 94.6
Q 43.6 96.05 44.2 96.7 44.75 97.45 45.65 97.45 46.55 97.45 47.1 96.75 47.7 96 47.7 94.6
L 47.7 87 54.4 87
Q 55.3 87 55.8 86.5 56.25 85.9 56.25 85.2 56.25 84.5 55.8 83.95 55.3 83.45 54.4 83.45
L 47.7 83.45 47.7 77.55 55.65 77.55
Q 56.65 77.55 57.15 77 57.65 76.5 57.65 75.7 57.65 74.95 57.15 74.45 56.65 73.9 55.65 73.9
M 35.4 78.1
Q 36.55 79 37.25 80.65 37.7 81.6 38.1 82.15 38.5 82.55 39.3 82.55 40.05 82.55 40.45 82 40.95 81.4 40.95 80.5 40.95 79 39.95 77.4 39 75.75 37.05 74.7 35.15 73.55 32.75 73.55 30.65 73.55 28.9 74.35 27.3 75.05 25.9 76.7 24.5 78.35 23.85 80.5 23.15 82.55 23.15 85.55 23.15 87.45 23.4 88.75 23.6 89.9 24.25 91.6 24.75 92.95 25.65 94.1 26.5 95.3 27.6 96 28.75 96.85 29.95 97.1 31.25 97.45 32.8 97.45 34.95 97.45 36.5 96.7 38.05 95.85 39.05 94.65 40.15 93.4 40.6 92.15 41.05 91 41.05 89.7 41.05 88.95 40.55 88.3 39.95 87.7 39.25 87.7 38.45 87.7 38.05 88.25 37.6 88.95 37.4 89.8 36.75 91.75 35.6 92.7 34.4 93.7 32.6 93.7 31 93.7 29.75 92.85 28.55 91.95 27.9 90.15 27.3 88.45 27.3 85.65 27.3 81.65 28.75 79.45 30.25 77.3 32.75 77.3 34.4 77.3 35.4 78.1
M 11.15 73.55
L 5.85 73.55
Q 4.6 73.55 3.9 74.25 3.35 74.95 3.35 76.45
L 3.35 93.4
Q 3.35 94.55 3.55 95.2 3.75 96 4.25 96.3 4.8 96.7 5.95 96.7
L 11.2 96.7
Q 12.75 96.7 13.7 96.45 14.95 96.25 15.8 95.75 16.65 95.3 17.55 94.4 18.5 93.45 19.2 91.95 19.8 90.8 20.2 88.85 20.55 86.95 20.55 85.1 20.55 78.8 17.35 75.65 16.25 74.5 14.7 74 12.95 73.55 11.15 73.55
M 13.3 77.75
Q 14.65 78.25 15.5 79.9 16.4 81.65 16.4 85 16.4 89.9 14.3 91.85 14.05 92.2 13.3 92.55 12.85 92.75 12.1 92.9 11.7 92.95 10.5 92.95
L 7.4 92.95 7.4 77.3 10.15 77.3
Q 12.05 77.3 13.3 77.75
M 92.8 74.25
Q 92.3 74.8 92.3 76.4
L 92.3 87.8
Q 92.3 90.75 91.25 92.25 90.3 93.7 87.9 93.7 86.25 93.7 85.25 93 84.25 92.25 83.85 91 83.55 89.55 83.55 87.75
L 83.55 76.4
Q 83.55 74.95 82.95 74.25 82.4 73.55 81.45 73.55 80.55 73.55 79.95 74.25 79.4 74.95 79.4 76.4
L 79.4 87.5
Q 79.4 89.95 79.9 92 80.4 93.9 81.5 95.1 82.65 96.4 84.25 96.9 85.9 97.45 88.15 97.45 90.2 97.45 91.6 96.9 93.1 96.4 94.1 95.2 95.45 93.85 95.85 92 96.35 90.1 96.35 87.5
L 96.35 76.4
Q 96.35 74.95 95.75 74.25 95.2 73.55 94.25 73.55 93.35 73.55 92.8 74.25 Z"/>
</g>
</defs>

<g transform="matrix( 1, 0, 0, 1, 0,0) ">
<use xlink:href="#Layer0_0_FILL"/>
</g>
</svg>
